<svg width="140" height="102" viewBox="0 0 140 102" fill="none" xmlns="http://www.w3.org/2000/svg">
<path fill-rule="evenodd" clip-rule="evenodd" d="M80.0517 0.653944C77.5074 2.30877 76.22 3.96791 75.1225 7.00685C74.3239 9.21782 73.4796 12.6172 72.892 15.9863C72.5717 17.8226 72.094 21.342 72.1587 21.3889C72.5547 21.6762 74.5387 23.3833 74.5095 23.4116C74.4875 23.433 74.0623 23.5279 73.5648 23.6226C73.0673 23.7173 72.5445 23.8186 72.4031 23.8478C72.16 23.898 72.179 23.94 72.7452 24.6078C73.5163 25.5173 74.0279 26.3451 74.3271 27.1676C74.6544 28.0675 74.587 29.3249 74.1622 30.2382C73.82 30.9745 73.9097 30.9676 72.5375 30.361C72.0719 30.1552 71.6909 30.0381 71.6909 30.1008C71.6909 30.1637 71.7417 30.4238 71.8039 30.6789C71.866 30.934 72.4064 33.4052 73.0045 36.1703C73.6026 38.9355 74.1126 41.2179 74.1378 41.2423C74.1905 41.2935 74.3639 40.7341 75.382 37.2275L76.1207 34.683L76.1148 28.7089C76.109 22.9014 76.1895 20.5737 76.5471 16.2075C77.0948 9.51873 77.9662 6.19758 80.3565 1.68713C80.8482 0.759153 81.2069 0 81.1537 0C81.1005 0 80.6046 0.294281 80.0517 0.653944ZM81.5227 2.53169C80.806 3.40546 80.1926 4.45978 79.7456 5.58689C78.6531 8.34073 78.2967 11.1732 77.9638 19.7477C77.5071 31.5087 76.9137 36.5674 75.3945 41.6528C74.2028 45.6422 72.3619 49.8098 70.2879 53.2138L70.0519 53.601L70.3196 53.3797C71.2041 52.6483 74.4093 48.3452 75.7582 46.078C79.7021 39.4496 81.3144 33.7725 82.0893 23.7858C82.2576 21.6153 82.2693 5.47493 82.1041 3.20831L82.0114 1.93605L81.5227 2.53169ZM18.3208 44.2075C16.3755 44.2824 12.971 44.4897 11.0794 44.6485C8.20331 44.8901 4.67119 45.2881 4.57483 45.3815C4.55453 45.4013 4.56787 46.5493 4.60459 47.9328C4.68214 50.8497 4.46569 50.5493 6.29817 50.2842C9.09064 49.8803 13.6583 49.4391 17.9217 49.1615C21.9271 48.9008 30.758 48.9001 34.2292 49.1603C43.896 49.8851 54.2458 52.0016 64.8486 55.4218C66.3225 55.8973 67.5433 56.2734 67.5614 56.2577C67.6263 56.2013 65.209 54.9168 63.081 53.877C55.3736 50.1108 46.567 47.0919 38.9048 45.5891C33.8906 44.6059 30.1516 44.2657 23.7376 44.2092C21.2915 44.1877 18.8539 44.1869 18.3208 44.2075ZM113.258 44.2127C110.001 44.2811 106.083 44.5988 103.051 45.0403C94.5291 46.2811 84.48 49.5228 75.4157 53.9549C73.4028 54.939 71.1649 56.1184 70.9834 56.2905C70.9391 56.3325 72.1451 55.9669 73.6633 55.4783C84.8967 51.8622 95.616 49.7269 105.56 49.1242C108.37 48.9539 116.65 48.9845 120.043 49.1777C124.446 49.4284 130.086 49.9714 133.158 50.4402C133.503 50.4929 133.811 50.5121 133.842 50.483C133.928 50.4027 134.024 45.4544 133.94 45.4043C133.755 45.2941 129.267 44.8156 126.315 44.5912C122.498 44.3013 116.842 44.1373 113.258 44.2127ZM22.5973 49.9643C17.9375 50.0944 11.333 50.6333 6.06166 51.3134L4.57916 51.5047L4.54905 55.1374L4.51895 58.7701L4.77713 58.7103C6.02767 58.4205 12.06 57.36 14.6146 56.9808C28.1882 54.9656 38.5631 54.5829 52.0762 55.5987C56.7245 55.9482 62.8821 56.6192 66.6711 57.1892C67.454 57.3069 68.1134 57.385 68.1364 57.3628C68.1593 57.3404 67.9293 57.2479 67.6253 57.1572C67.3212 57.0665 66.3026 56.7623 65.3617 56.4812C54.6534 53.2814 42.559 50.9361 32.8483 50.1761C30.7664 50.0132 25.0641 49.8954 22.5973 49.9643ZM107.556 50.1246C97.4532 50.7175 83.9957 53.2746 72.5055 56.7847C71.4795 57.0981 70.6936 57.3718 70.7589 57.393C70.8244 57.4141 71.7665 57.304 72.8525 57.1484C75.7363 56.7349 76.2188 56.6725 78.4192 56.4285C82.774 55.9456 86.5238 55.6332 91.2485 55.3597C95.1646 55.133 104.529 55.0978 107.499 55.2986C114.577 55.777 120.224 56.425 126.943 57.5304C129.642 57.9744 133.609 58.708 133.904 58.8177C134.047 58.8712 134.07 58.3883 134.07 55.2788C134.07 53.2984 134.028 51.6527 133.976 51.6219C133.733 51.4756 127.087 50.7305 123.521 50.4496C118.484 50.0528 111.279 49.9061 107.556 50.1246ZM136.462 53.9882C136.445 54.9698 135.946 60.3914 135.865 60.4702C135.824 60.5098 134.827 60.3644 133.648 60.1473C126.115 58.7597 118.326 57.8837 108.183 57.2834C105.013 57.0958 92.2259 57.0957 89.1958 57.2833C82.5381 57.6955 78.1875 58.1556 72.7172 59.0257L70.2654 59.4156L68.4408 58.9764C64.3947 58.0027 60.6936 57.4677 54.9272 57.0234C51.8477 56.786 42.5474 56.6919 38.2776 56.8549C28.1308 57.242 17.0048 58.3212 6.65683 59.9222C5.22792 60.1433 4.03599 60.3019 4.00805 60.2748C3.97999 60.2477 3.84988 59.3323 3.71873 58.2407C3.58759 57.1492 3.41585 55.8081 3.33717 55.2604C3.19986 54.3061 3.18891 54.2809 3.07362 54.652C3.00748 54.8649 2.61358 56.1219 2.19826 57.4454C0.261196 63.6179 -0.047621 64.6378 0.00540697 64.6891C0.0366535 64.7194 1.48905 64.6885 3.23293 64.6203C4.97692 64.5522 7.68671 64.4464 9.25474 64.3854C25.5066 63.7529 43.4296 62.786 59.5743 61.6709L61.9977 61.5035L63.0373 62.2276C64.9747 63.5773 67.0721 64.5221 68.9499 64.8912C71.965 65.4839 74.9889 64.4363 78.794 61.4808L79.1891 61.1739L84.1925 61.6153C89.215 62.0584 93.3262 62.4051 95.9811 62.6094C107.586 63.5024 114.942 63.9778 123.464 64.3857C124.75 64.4472 126.29 64.5232 126.886 64.5545C127.958 64.6109 134.066 64.8592 137.976 65.0052C139.74 65.0711 140 65.0594 140 64.9136C140 64.8217 139.645 63.5828 139.212 62.1607C138.779 60.7386 138.029 58.2558 137.546 56.6433C137.062 55.0309 136.623 53.6369 136.569 53.5456C136.506 53.4375 136.468 53.5916 136.462 53.9882ZM103.721 76.668C101.751 76.9718 100.054 78.0105 98.9899 79.5633C97.4598 81.7962 97.2599 84.9202 98.4912 87.3593C99.847 90.045 102.342 91.4033 105.615 91.2378C108.477 91.0931 110.467 89.8218 111.769 87.3053C112.267 86.3444 112.517 85.1916 112.515 83.8686C112.513 82.4348 112.309 81.5484 111.702 80.3296C110.869 78.6564 109.163 77.3065 107.291 76.8379C106.417 76.6192 104.599 76.5326 103.721 76.668ZM27.672 77.7739V78.5484H31.8914C35.6424 78.5484 36.1108 78.5676 36.1108 78.7214C36.1108 78.8165 35.6856 79.3765 35.1657 79.966C34.6459 80.5553 32.7215 82.739 30.8892 84.8184L27.5579 88.5992V89.7692V90.9391H32.9178H38.2776V90.166V89.3928L33.868 89.3639C30.8889 89.3443 29.4455 89.2969 29.4183 89.2177C29.3961 89.1532 31.3291 86.8882 33.7137 84.1844L38.0495 79.2685V78.1339V76.9995H32.8607H27.672V77.7739ZM45.0058 81.696C45.0058 86.7344 45.0366 87.0807 45.5909 88.2738C46.4576 90.1396 48.0337 91.1076 50.4172 91.238C53.7596 91.421 55.966 90.0278 56.7127 87.2627C56.8681 86.6871 56.9084 85.7551 56.9493 81.7843L56.9987 76.9995H56.02H55.0412L55.0403 81.3418C55.0399 83.7837 54.9882 85.991 54.9223 86.3852C54.5752 88.4601 53.2626 89.5009 50.9929 89.5009C49.3357 89.5009 48.2044 88.9794 47.5154 87.8978C46.9743 87.0484 46.947 86.7536 46.9458 81.729L46.9445 76.9995H45.9752H45.0058V81.696ZM64.7345 83.9693V90.9391H65.7039H66.6732V87.6755V84.4118L67.3289 84.4129L67.9846 84.4141L70.8926 87.6716L73.8006 90.929L74.9695 90.9341C75.6123 90.9369 76.1384 90.9111 76.1384 90.8769C76.1384 90.8427 74.6007 89.1128 72.7212 87.0325C70.8417 84.9523 69.3034 83.2004 69.3025 83.1396C69.3016 83.0787 70.4415 81.7635 71.8357 80.2169C73.2301 78.6703 74.4378 77.3137 74.5198 77.2022C74.6612 77.0098 74.6142 76.9995 73.5938 76.9995H72.5189L69.6246 80.2187L66.7302 83.438L66.7 80.2187L66.6698 76.9995H65.7021H64.7345V83.9693ZM82.0684 83.9693V90.9391H83.0377H84.007V87.6755V84.4118H84.6661H85.325L86.6953 85.933C87.449 86.7697 88.7708 88.2384 89.6326 89.1966L91.1996 90.9391H92.4019H93.6041L93.2245 90.5138C93.0159 90.2798 91.4595 88.5566 89.766 86.6843C88.0725 84.8121 86.687 83.2152 86.687 83.1358C86.687 83.0564 87.9046 81.6433 89.3928 79.9954L92.0987 76.9995H90.9806H89.8627L87.1073 80.0825C85.5919 81.7781 84.2744 83.2281 84.1795 83.3044C84.0262 83.4278 84.007 83.0844 84.007 80.2213V76.9995H83.0377H82.0684V83.9693ZM106.847 78.557C108.28 79.0217 109.295 79.8904 109.948 81.2138C110.776 82.8889 110.761 85.0857 109.912 86.7006C109.27 87.9208 108.001 88.9797 106.759 89.3297C105.834 89.5906 104.132 89.5581 103.312 89.2639C101.465 88.6005 100.225 87.1693 99.7954 85.2043C99.1315 82.1657 100.792 79.2411 103.609 78.4876C104.47 78.2573 106.025 78.2906 106.847 78.557ZM48.6171 94.885C48.5753 94.9255 48.541 96.5186 48.541 98.4252V101.892H48.9972H49.4534V100.675V99.4577L49.824 99.4598C50.1577 99.4616 50.295 99.583 51.2012 100.677L52.2078 101.892H52.7122C53.1751 101.892 53.3604 101.77 53.1182 101.624C53.064 101.592 52.5204 100.968 51.9101 100.238L50.8005 98.9107L51.7234 97.8869C52.2311 97.3238 52.6464 96.8246 52.6464 96.7776C52.6464 96.7304 52.4501 96.6919 52.2099 96.6919C51.7935 96.6919 51.7214 96.7514 50.6419 97.9829L49.5104 99.2737L49.4795 97.0425L49.4487 94.8112H49.0709C48.8631 94.8112 48.6588 94.8444 48.6171 94.885ZM54.2658 94.9439C53.9215 95.2779 54.2437 95.9175 54.7561 95.9175C55.2627 95.9175 55.5143 95.4765 55.2653 95.0252C55.13 94.7799 54.4886 94.7278 54.2658 94.9439ZM68.1231 94.8797C68.0783 94.9232 68.0416 96.5186 68.0416 98.4252V101.892H68.4408C68.8382 101.892 68.8399 101.89 68.8399 101.39V100.888L69.2087 101.296C69.671 101.807 70.1476 102.003 70.9175 102C71.9745 101.995 72.8356 101.428 73.2641 100.453C73.4977 99.9221 73.4851 98.6332 73.2408 98.0748C72.5706 96.5426 70.5238 96.0706 69.3854 97.1858L69.0754 97.4893L69.0432 96.1779L69.011 94.8665L68.6077 94.8335C68.386 94.8155 68.1679 94.8362 68.1231 94.8797ZM57.4361 95.9109V96.6919H56.9799C56.5346 96.6919 56.5237 96.7011 56.5237 97.0791C56.5237 97.4572 56.5346 97.4664 56.9799 97.4664H57.4361L57.4365 99.1535C57.4369 100.651 57.4629 100.882 57.6671 101.207C57.9658 101.682 58.5044 101.892 59.4281 101.892H60.173V101.504V101.117H59.5612C59.1148 101.117 58.868 101.055 58.6489 100.888C58.3492 100.659 58.3484 100.655 58.3484 99.0671V97.4756L59.2322 97.4433L60.116 97.411V97.0791V96.7472L59.2373 96.7151L58.3585 96.6827L58.325 95.9406L58.2913 95.1984L57.8637 95.1641L57.4361 95.1297V95.9109ZM62.6201 96.8362C62.0034 97.1223 61.4868 97.636 61.239 98.2096C61.0149 98.7284 61.0469 99.9737 61.2981 100.509C61.5652 101.078 62.3167 101.734 62.8733 101.884C63.5678 102.071 64.505 102.023 65.0766 101.772C66.1834 101.285 66.6113 100.592 66.6142 99.2831C66.6159 98.4796 66.5813 98.3347 66.2711 97.8478C65.7649 97.0536 65.0659 96.6704 64.0205 96.6141C63.3235 96.5764 63.1055 96.6109 62.6201 96.8362ZM81.5954 96.7352C79.8261 97.3484 79.224 99.5572 80.4139 101.071C81.0248 101.847 82.407 102.202 83.5875 101.884C84.1136 101.742 84.8589 101.113 85.1448 100.569C85.8693 99.1913 85.2723 97.4899 83.8368 96.8414C83.1862 96.5474 82.2632 96.5037 81.5954 96.7352ZM88.6199 96.73C88.4287 96.8146 88.1367 97.0401 87.9711 97.2309L87.6701 97.578L87.6347 97.1627C87.6023 96.7833 87.5671 96.7443 87.2286 96.7126L86.858 96.6779V99.2848V101.892H87.3142H87.7703L87.771 100.315C87.7714 99.448 87.8257 98.5493 87.892 98.318C88.1361 97.465 89.3615 97.1685 90.0778 97.789L90.4502 98.1117L90.4883 100.002L90.5265 101.892H90.9821H91.4377L91.4001 99.8726C91.3592 97.6735 91.2794 97.372 90.6102 96.8882C90.223 96.6081 89.0976 96.5187 88.6199 96.73ZM53.6728 97.0745C53.6728 97.4485 53.6909 97.4664 54.0719 97.4664H54.4711V99.6853V101.904L54.9557 101.87L55.4404 101.836V99.2918V96.7472L54.5566 96.7149L53.6728 96.6826V97.0745ZM74.3138 96.7657C74.3138 96.8062 74.673 97.3739 75.112 98.027C75.5511 98.6803 75.9103 99.2467 75.9103 99.2858C75.9103 99.3249 75.5254 99.8969 75.055 100.557C74.5846 101.217 74.1997 101.787 74.1997 101.824C74.1997 101.861 74.4048 101.892 74.6553 101.892C75.1045 101.892 75.1209 101.877 75.8242 100.843C76.2165 100.267 76.5732 99.7937 76.6168 99.7923C76.6603 99.7908 77.0159 100.243 77.4067 100.796C77.7977 101.35 78.18 101.826 78.2563 101.855C78.3327 101.883 78.581 101.891 78.8081 101.871L79.2211 101.836L78.2564 100.516C77.7259 99.7891 77.3252 99.1419 77.3658 99.0774C77.4064 99.0128 77.7617 98.462 78.1555 97.8536L78.8712 96.7472L78.5203 96.7119C78.3272 96.6923 78.1031 96.701 78.022 96.7312C77.9409 96.7614 77.6038 97.2209 77.273 97.7522L76.6715 98.7183L76.4593 98.4641C76.3426 98.3243 76.0302 97.8687 75.7651 97.4519C75.2919 96.7076 75.2743 96.6938 74.7984 96.6929C74.5318 96.6924 74.3138 96.7251 74.3138 96.7657ZM64.9003 97.6849C65.4451 98.0122 65.6991 98.5241 65.7017 99.2999C65.7045 100.189 65.3225 100.787 64.5744 101.064C62.8866 101.689 61.4356 100.058 62.2101 98.4067C62.4552 97.884 62.6453 97.7154 63.2225 97.5088C63.7377 97.3244 64.4194 97.396 64.9003 97.6849ZM71.5416 97.5711C72.4004 97.9494 72.7476 99.1587 72.3051 100.231C71.873 101.279 70.4972 101.551 69.5804 100.77C69.0958 100.357 68.9049 99.7448 69.0089 98.9372C69.173 97.6634 70.332 97.0383 71.5416 97.5711ZM83.2203 97.4814C84.0983 97.7661 84.5271 98.4875 84.438 99.5301C84.3577 100.469 83.7871 101.063 82.8467 101.186C81.6943 101.337 80.7977 100.512 80.7977 99.3001C80.7977 97.921 81.9374 97.0654 83.2203 97.4814Z" fill="white"/>
</svg>
