<svg width="282" height="166" viewBox="0 0 282 166" fill="none" xmlns="http://www.w3.org/2000/svg">
<g clip-path="url(#clip0_51_370)">
<g opacity="0.4">
<path opacity="0.4" d="M187.547 96.2557C189.983 89.9921 193.035 83.9859 196.658 78.3253C203.927 66.9759 213.309 57.1285 224.293 49.3186C229.925 45.2788 235.976 41.8589 242.341 39.1182C249.237 36.2013 256.967 34.3135 264.407 36.0738C270.448 37.5024 275.976 41.2144 278.437 47.0693C281.133 53.5067 281.358 61.1815 279.509 67.8613C277.874 73.5463 274.671 78.6555 270.266 82.6028C265.889 86.5264 260.755 89.5117 255.181 91.3745C249.543 93.3277 243.599 94.2467 237.635 94.0872C236.21 94.0447 234.786 93.9384 233.383 93.7641C232.533 93.6578 232.533 94.9929 233.383 95.0992C239.466 95.812 245.629 95.3895 251.559 93.8534C257.477 92.3885 263.054 89.7893 267.983 86.1999C272.727 82.6835 276.741 78.1212 279.177 72.7085C282.213 65.9564 282.774 58.1498 281.086 50.9598C280.423 48.145 279.385 45.3217 277.685 42.9619C275.709 40.2855 273.11 38.1325 270.113 36.6903C263.378 33.3865 255.712 33.5141 248.608 35.4913C244.709 36.6271 240.926 38.1261 237.307 39.9685C234.224 41.499 231.221 43.1864 228.311 45.0241C222.458 48.7129 216.983 52.9683 211.963 57.7289C206.965 62.4727 202.438 67.6886 198.443 73.3038C194.447 78.9132 191.021 84.9086 188.218 91.2002C187.53 92.7507 186.878 94.3098 186.263 95.8773C185.952 96.6809 187.24 97.0253 187.538 96.2345L187.547 96.2557Z" fill="#64C962"/>
<path opacity="0.4" d="M192.215 96.4727C204.625 75.9443 221.861 57.0444 244.535 49.2081C248.876 47.7072 253.463 46.6272 258.038 47.0821C262.613 47.5371 267.179 49.7524 269.615 53.6471C272 57.4739 272.051 62.3509 270.937 66.7091C268.973 74.4009 263.71 80.9488 257.362 85.7195C251.014 90.4902 243.617 93.6621 236.176 96.4089" fill="#64C962"/>
<path opacity="0.4" d="M192.789 96.8089C197.971 88.2455 203.881 80.0988 210.756 72.8152C217.499 65.6677 225.182 59.3535 233.838 54.6594C238.31 52.1903 243.048 50.2374 247.962 48.8385C253.183 47.3971 258.961 46.9336 263.931 49.472C266.117 50.5429 267.952 52.2157 269.22 54.2937C270.49 56.5961 271.095 59.2061 270.967 61.8324C270.844 66.8922 268.777 71.816 265.95 75.9489C259.777 84.9757 249.854 90.3374 239.922 94.2705C238.621 94.7892 237.311 95.2824 236.002 95.7672C235.203 96.0605 235.547 97.3531 236.355 97.0427C246.895 93.148 257.613 88.2837 264.96 79.444C268.255 75.4726 270.835 70.7743 271.856 65.6847C272.893 60.5016 272.196 54.7742 268.272 50.9262C264.445 47.176 258.871 45.9344 253.667 46.4021C248.085 46.8996 242.647 48.9533 237.588 51.2791C228.362 55.5311 220.088 61.6581 212.856 68.7546C205.505 75.9829 199.179 84.1806 193.66 92.8588C192.974 93.9388 192.3 95.0259 191.637 96.1201C191.19 96.8599 192.347 97.5317 192.789 96.7961V96.8089Z" fill="#64C962"/>
<path opacity="0.4" d="M171.518 133.086C173.129 141.879 177.122 150.217 184.052 156.047C189.961 161.009 197.347 163.823 204.885 165.091C208.519 165.69 212.196 165.993 215.879 165.996C221.177 165.996 226.598 165.286 231.27 162.595C240.836 157.118 242.354 145.387 246.703 136.233C250.929 127.359 256.55 118.128 265.882 113.952C267.026 113.438 268.207 113.011 269.415 112.677C269.565 112.614 269.687 112.498 269.758 112.352C269.828 112.205 269.843 112.038 269.799 111.882C269.755 111.725 269.656 111.59 269.519 111.501C269.383 111.413 269.219 111.377 269.058 111.401C264.307 112.779 259.991 115.359 256.529 118.893C252.97 122.439 250.177 126.7 247.8 131.109C246.593 133.346 245.453 135.629 244.467 137.967C243.481 140.306 242.622 142.759 241.742 145.166C240.041 149.864 238.124 154.733 234.561 158.347C230.675 162.382 225.169 164.125 219.727 164.551C215.876 164.807 212.01 164.698 208.18 164.223C200.812 163.373 193.465 161.166 187.347 156.897C180.315 151.999 175.748 144.566 173.614 136.36C173.304 135.165 173.04 133.958 172.819 132.746C172.666 131.896 171.378 132.261 171.544 133.103L171.518 133.086Z" fill="#64C962"/>
<path opacity="0.4" d="M178.231 96.8768C178.232 97.0038 178.203 97.1292 178.146 97.2427C178.089 97.3561 178.005 97.4543 177.903 97.5292C177.8 97.604 177.681 97.6533 177.556 97.6729C177.43 97.6925 177.302 97.682 177.181 97.6421C172.568 83.7765 173.261 68.8097 172.564 54.217C171.867 39.6244 169.341 24.2026 159.758 13.1816C155.689 8.50443 150.124 4.67768 143.925 4.38855C137.726 4.09942 131.124 8.15152 130.099 14.2701C129.699 16.6129 130.099 19.0067 130.278 21.3793C130.589 25.6762 130.14 29.9943 128.951 34.1351C128.56 35.483 128.058 36.8734 127.021 37.8258C124.262 40.377 119.729 38.4721 116.145 39.5776C113.696 40.3302 111.894 42.4562 110.758 44.7522C108.582 49.1275 108.395 54.3191 109.598 59.0558C110.801 63.7924 113.305 68.1124 116.29 71.9817C125.101 83.3099 137.829 90.9352 151.973 93.3604" fill="#64C962"/>
<path opacity="0.4" d="M177.568 96.8766C177.568 97.0041 177.462 97.0297 177.355 96.9999L177.823 97.4633C174.992 88.9084 174.163 79.8943 173.793 70.9398C173.436 62.3891 173.495 53.8129 172.543 45.3006C171.692 37.6471 170.064 29.9936 166.807 22.9481C163.644 16.145 158.729 9.51622 151.927 5.97861C148.666 4.27783 144.933 3.3339 141.255 3.85264C137.929 4.29063 134.845 5.8276 132.493 8.21938C131.36 9.39223 130.479 10.7841 129.903 12.3097C129.185 14.2401 129.151 16.3108 129.304 18.339C129.55 20.6169 129.673 22.9063 129.674 25.1974C129.602 27.488 129.309 29.7663 128.798 32.0005C128.373 33.8458 127.948 36.1504 126.426 37.443C125.15 38.54 123.326 38.5825 121.723 38.5612C119.972 38.5612 118.194 38.3954 116.468 38.7866C114.708 39.2346 113.138 40.2344 111.987 41.6396C109.389 44.6755 108.271 48.8339 108.186 52.767C108.093 56.9679 109.207 61.0838 111.018 64.851C112.827 68.4924 115.115 71.8757 117.82 74.9111C120.317 77.7775 123.093 80.3883 126.107 82.7049C132.14 87.3639 139.027 90.7973 146.378 92.8117C148.156 93.2993 149.957 93.6848 151.782 93.9683C152.632 94.1128 152.981 92.8245 152.135 92.6927C144.679 91.4228 137.551 88.6762 131.17 84.614C124.665 80.5293 119.086 75.1284 114.793 68.7585C110.295 61.9554 107.485 53.0051 111.235 45.2325C111.967 43.5847 113.11 42.1527 114.555 41.0741C116.047 40.0452 117.735 39.8326 119.504 39.8411C121.273 39.8496 123.029 40.0324 124.75 39.6582C125.613 39.4781 126.423 39.1017 127.117 38.5583C127.81 38.0149 128.37 37.319 128.751 36.5245C129.67 34.6622 130.103 32.5022 130.452 30.474C130.842 28.2748 131.033 26.0448 131.022 23.8112C130.996 19.7634 129.695 15.3882 131.689 11.6039C133.198 8.74237 136.004 6.70144 139.053 5.72349C142.454 4.63074 146.055 4.9794 149.367 6.2805C156.472 9.06552 161.663 15.6348 164.996 22.2805C168.431 29.1219 170.166 36.7371 171.084 44.2886C172.105 52.6777 172.092 61.1348 172.402 69.5664C172.73 78.4359 173.401 87.4033 175.944 95.9539C176.093 96.4599 176.25 96.9616 176.412 97.4633C176.573 97.9651 176.726 98.3137 177.3 98.369C177.503 98.3835 177.707 98.3564 177.899 98.2892C178.091 98.2221 178.267 98.1164 178.417 97.9786C178.567 97.8408 178.687 97.6739 178.77 97.488C178.852 97.3021 178.896 97.1013 178.899 96.8978C178.92 96.0475 177.589 96.0475 177.568 96.8978V96.8766Z" fill="#64C962"/>
<path opacity="0.4" d="M124.648 31.7923C114.985 31.0142 106.235 38.5954 104.003 47.7074C102.765 52.7502 103.263 58.1331 105.036 62.9846C106.85 67.8115 109.795 72.1332 113.624 75.5873C117.876 79.5034 122.978 82.3904 128.369 84.4696C129.172 84.7758 129.521 83.4874 128.726 83.1941C119.704 79.7245 111.213 73.5719 107.115 64.5748C105.004 60.0596 104.232 55.0334 104.891 50.0927C105.547 45.5059 107.75 41.2811 111.137 38.1192C114.772 34.7432 119.64 32.7235 124.648 33.1274C125.499 33.1955 125.499 31.8519 124.648 31.7923Z" fill="#64C962"/>
<path opacity="0.4" d="M149.189 87.1653C141.242 85.1244 128.011 89.5252 119.814 89.7803C111.617 90.0354 103.178 92.7311 97.5572 98.7094C95.0403 101.384 93.1228 105.453 94.951 108.642C95.6762 109.789 96.6871 110.728 97.8846 111.367C104.173 115.028 112.115 113.532 119.223 115.088C122.2 115.738 125.384 117.307 126.183 120.237C127.191 123.932 123.883 127.865 125.099 131.496C125.792 133.567 127.867 134.949 130.01 135.344C132.152 135.74 134.368 135.297 136.464 134.685C141.332 133.265 145.991 130.829 149.495 127.159C152.998 123.49 155.268 118.502 155.098 113.43C154.975 109.577 168.236 89.4189 166.578 85.9365" fill="#64C962"/>
<path opacity="0.4" d="M149.367 86.5318C146.412 85.7877 143.292 85.8855 140.282 86.1789C136.821 86.5105 133.398 87.1398 129.98 87.7478C126.891 88.3736 123.767 88.8194 120.626 89.0829C118.926 89.1892 117.204 89.253 115.495 89.5081C113.73 89.7359 111.984 90.0897 110.269 90.5669C106.803 91.5138 103.531 93.067 100.606 95.1547C97.7698 97.2297 95.0785 99.8914 93.9816 103.314C93.4115 104.914 93.425 106.664 94.0199 108.255C94.7086 109.922 96.0946 111.112 97.6252 111.992C100.878 113.868 104.645 114.425 108.335 114.701C112.025 114.977 115.843 114.939 119.478 115.84C122.412 116.567 125.716 118.341 125.711 121.793C125.711 125.139 123.326 128.316 124.457 131.7C125.639 135.212 129.674 136.488 133.075 136.092C135.07 135.828 137.026 135.328 138.904 134.604C140.667 133.969 142.374 133.187 144.006 132.266C147.238 130.464 150.031 127.968 152.182 124.957C154.332 121.928 155.581 118.354 155.787 114.646C155.808 114.131 155.762 113.612 155.808 113.102C155.808 113.306 155.834 112.975 155.851 112.898C155.885 112.753 155.919 112.609 155.961 112.473C156.163 111.798 156.407 111.136 156.693 110.491C158.491 106.308 160.778 102.328 162.853 98.2799C163.908 96.2177 164.949 94.1428 165.859 92.0168C166.518 90.4776 167.215 88.8618 167.394 87.1823C167.467 86.6515 167.395 86.1109 167.186 85.6176C166.828 84.8353 165.681 85.5113 166.033 86.2894C165.94 86.0811 166.033 86.3532 166.063 86.4212C166.063 86.536 166.093 86.4893 166.063 86.4212C166.063 86.485 166.063 86.553 166.063 86.6168C166.063 86.6806 166.063 86.8549 166.063 86.974C166.063 87.093 166.063 87.0973 166.063 87.1568C166.069 87.1991 166.069 87.2421 166.063 87.2844C165.938 87.9898 165.75 88.6828 165.502 89.3551C164.824 91.2144 164.033 93.0305 163.134 94.7933C161.08 98.99 158.797 103.063 156.756 107.26C155.966 108.763 155.296 110.327 154.754 111.937C154.584 112.446 154.495 112.978 154.49 113.515C154.52 115.295 154.274 117.069 153.763 118.774C151.638 125.824 145.536 130.718 138.836 133.231C135.52 134.468 131.272 135.846 127.973 133.869C127.309 133.502 126.743 132.979 126.324 132.346C125.905 131.713 125.645 130.988 125.567 130.233C125.443 128.6 125.992 127.01 126.443 125.463C126.893 123.915 127.293 122.257 127 120.611C126.719 119.136 125.92 117.81 124.746 116.874C122.157 114.726 118.675 114.174 115.431 113.851C111.779 113.489 108.084 113.549 104.462 112.919C102.707 112.648 100.997 112.137 99.3811 111.401C97.8208 110.666 96.2264 109.675 95.4101 108.098C93.8498 105.066 95.9586 101.388 98.0291 99.1685C100.43 96.6639 103.31 94.6683 106.498 93.3009C109.688 91.9237 113.068 91.0377 116.524 90.6732C118.109 90.4946 119.708 90.4776 121.298 90.35C122.786 90.231 124.274 90.0269 125.745 89.7973C132.123 88.8023 138.577 87.1015 145.086 87.2929C146.409 87.3164 147.725 87.4861 149.01 87.7989C149.86 88.0072 150.2 86.7189 149.367 86.5233V86.5318Z" fill="#64C962"/>
<path opacity="0.4" d="M123.951 115.228C124.202 117.333 123.36 119.514 122.676 121.457C121.804 123.872 120.779 126.241 120.035 128.685C119.449 130.624 118.858 132.937 119.572 134.936C120.52 137.563 122.875 139.562 125.346 140.718C130.992 143.367 137.722 142.611 143.309 140.204C149.291 137.623 154.218 133.022 157.585 127.486C161.165 121.61 163.045 114.841 163.818 108.038C163.912 107.207 163.988 106.375 164.048 105.542C164.112 104.692 162.772 104.692 162.713 105.542C162.228 112.073 160.757 118.638 157.739 124.484C154.847 130.097 150.511 134.885 144.958 137.921C139.827 140.714 133.479 142.032 127.786 140.246C125.205 139.434 122.722 137.912 121.336 135.531C120.846 134.74 120.591 133.826 120.601 132.895C120.633 131.878 120.794 130.869 121.081 129.893C121.711 127.512 122.676 125.216 123.543 122.928C124.325 120.858 125.15 118.702 125.324 116.474C125.358 116.049 125.351 115.622 125.303 115.198C125.205 114.348 123.87 114.348 123.968 115.198L123.951 115.228Z" fill="#64C962"/>
<path opacity="0.4" d="M164.197 90.6136C166.527 96.4643 178.159 135.025 181.356 140.455C183.401 143.941 185.659 147.369 188.669 150.068C191.981 153.045 196.067 155.009 200.148 156.753C205.952 159.223 212.831 161.272 218.337 158.194C223.086 155.536 225.279 149.66 225.071 144.222C224.863 138.784 217.486 94.1427 215.348 89.1382" fill="#64C962"/>
<path opacity="0.4" d="M163.555 90.7919C164.932 94.2614 165.991 97.8756 167.139 101.422C168.98 107.107 170.804 112.8 172.666 118.48C174.409 123.8 176.161 129.11 178.091 134.366C178.729 136.101 179.366 137.84 180.145 139.523C180.505 140.289 180.909 141.033 181.356 141.751C182.552 143.787 183.893 145.734 185.37 147.577C188.444 151.314 192.415 153.92 196.76 155.97C200.914 157.922 205.293 159.763 209.889 160.286C214.14 160.77 218.515 159.729 221.525 156.544C224.246 153.665 225.569 149.66 225.743 145.752C225.775 144.266 225.681 142.78 225.462 141.309C225.224 139.358 224.948 137.414 224.663 135.476C223.859 130.003 222.962 124.54 222.057 119.084C221.087 113.336 220.076 107.604 218.974 101.864C218.222 97.9606 217.525 93.9936 216.423 90.1711C216.291 89.706 216.132 89.2489 215.947 88.8019C215.858 88.6492 215.711 88.538 215.54 88.4926C215.369 88.4473 215.187 88.4713 215.033 88.5596C214.884 88.6529 214.777 88.7995 214.733 88.9694C214.688 89.1393 214.711 89.3197 214.795 89.4738C214.689 89.2271 214.795 89.512 214.829 89.58C214.863 89.6481 214.906 89.7926 214.944 89.8989C215.025 90.1498 215.101 90.4049 215.173 90.6558C215.369 91.3361 215.543 92.0249 215.705 92.7137C216.173 94.6484 216.581 96.6 216.98 98.5516C218.073 103.939 219.047 109.352 219.986 114.764C220.964 120.411 221.894 126.066 222.775 131.73C223.366 135.556 223.97 139.268 224.344 143.074C224.965 149.388 222.257 156.735 215.628 158.602C211.334 159.814 206.726 158.572 202.678 157.046C198.358 155.417 193.92 153.44 190.28 150.553C186.743 147.747 184.094 143.933 181.888 140.029C181.235 138.811 180.678 137.545 180.221 136.241C178.367 131.47 176.76 126.602 175.149 121.746C173.248 116.014 171.403 110.266 169.55 104.521C168.198 100.329 166.88 96.1238 165.417 91.9739C165.234 91.4594 165.051 90.9449 164.847 90.4347C164.537 89.6481 163.244 89.9882 163.572 90.7919H163.555Z" fill="#64C962"/>
<path opacity="0.4" d="M208.677 75.7274C211.543 70.4294 214.434 65.0592 215.849 59.2086C217.265 53.3579 217.065 46.8779 213.987 41.6906C213.424 40.6207 212.59 39.7174 211.568 39.0714C210.518 38.4889 209.111 38.4081 208.167 39.1479C207.393 39.7517 207.061 40.7509 206.772 41.6991L204.591 48.7233C204.48 49.2123 204.252 49.6672 203.928 50.0499C203.112 50.8663 201.67 50.5134 200.795 49.7608C199.919 49.0082 199.349 47.9494 198.473 47.2096C196.182 45.2537 192.389 46.1041 190.395 48.3746C188.401 50.6452 193.626 88.9892 193.737 92.0038" fill="#64C962"/>
<path opacity="0.4" d="M209.255 76.0632C212.155 70.6845 215.131 65.208 216.534 59.2127C217.809 53.817 217.75 47.9196 215.352 42.8343C214.281 40.5637 212.474 37.7575 209.604 37.953C208.984 37.9958 208.388 38.2058 207.878 38.5607C207.368 38.9156 206.964 39.4021 206.708 39.9685C206.037 41.3291 205.701 42.8895 205.25 44.331L204.566 46.5377C204.311 47.3583 204.111 48.2385 203.783 49.0251C203.29 50.2411 201.942 49.9095 201.135 49.1739C200.135 48.264 199.506 47.0479 198.35 46.2826C197.378 45.6732 196.243 45.3764 195.097 45.4322C193.967 45.486 192.865 45.7988 191.875 46.3464C191.032 46.7496 190.302 47.3542 189.749 48.1067C189.487 48.6599 189.349 49.2635 189.345 49.8755C189.214 52.0915 189.247 54.3143 189.443 56.5255C189.847 63.2733 190.595 69.9999 191.356 76.7137C191.904 81.612 192.593 86.4932 193.027 91.4169C193.027 91.604 193.057 91.7911 193.065 91.9824C193.099 92.8328 194.434 92.8328 194.4 91.9824C194.345 90.5878 194.128 89.1889 193.975 87.8028C193.665 85.09 193.341 82.3773 193.031 79.6646C192.262 73.0103 191.513 66.3517 190.999 59.6805C190.799 57.1293 190.616 54.5399 190.612 51.9632C190.599 51.1381 190.637 50.3131 190.727 49.4928C190.701 49.7054 190.756 49.3185 190.773 49.2292C190.79 49.1399 190.837 48.9953 190.867 48.8805C190.867 48.906 190.905 48.7019 190.867 48.8805C190.877 48.8461 190.895 48.8142 190.918 48.787C191.058 48.7232 190.693 49.0038 190.969 48.7275C191.177 48.5234 191.373 48.3023 191.598 48.1322C193.193 46.8268 195.705 46.2358 197.551 47.3583C198.656 48.0301 199.251 49.2547 200.182 50.1136C201.033 50.8789 202.236 51.3892 203.384 51.0958C204.77 50.7259 205.084 49.293 205.471 48.0939C205.947 46.5547 206.425 45.0155 206.904 43.4763C207.117 42.7875 207.329 42.0859 207.555 41.4014C207.713 40.7698 208.041 40.1935 208.503 39.7346C209.468 38.9225 210.901 39.3094 211.789 40.0365C212.822 40.8869 213.49 42.1114 214.076 43.2807C214.662 44.4934 215.112 45.7667 215.42 47.0777C216.028 49.734 216.181 52.4745 215.871 55.1819C215.271 60.9858 212.818 66.4155 210.157 71.5349C209.481 72.8317 208.788 74.1158 208.094 75.3999C207.669 76.1567 208.839 76.8285 209.247 76.0717L209.255 76.0632Z" fill="#64C962"/>
</g>
<path d="M89.6492 46.4612C104.815 58.5155 130.834 39.5136 130.834 39.5136L136.179 34.9045C142.654 32.0259 144.792 29.7639 144.792 29.7639L140.583 31.7027L145.604 27.7314C145.736 27.6251 145.15 27.7059 144.997 27.7825L140.303 30.2358L145.133 25.9371C145.154 25.9168 145.168 25.8894 145.171 25.8598C145.174 25.8302 145.166 25.8006 145.149 25.7763C145.132 25.752 145.107 25.7346 145.078 25.7275C145.049 25.7203 145.019 25.7238 144.992 25.7373L139.227 28.9135C139.227 28.9135 143.772 24.7083 143.054 24.8231C142.335 24.9379 136.349 29.1176 136.349 29.1176C136.349 29.1176 138.819 25.1037 138.071 25.3206C137.586 25.4609 135.694 27.8718 134.423 29.5725C133.606 30.6568 133.836 31.0224 132.65 31.6985L124.045 36.8008C116.817 41.2313 104.011 44.6031 94.377 36.6435C94.377 36.6435 90.7036 34.7089 87.5404 38.5994C84.3772 42.4899 89.6492 46.4612 89.6492 46.4612Z" fill="#FFA47A" stroke="#FFA47A" stroke-width="1.48" stroke-linecap="round" stroke-linejoin="round"/>
<path d="M111.868 40.9165C106.094 41.6946 101.515 39.9429 94.377 36.6646C94.377 36.6646 90.7036 34.73 87.5404 38.6205C84.3772 42.511 89.6662 46.4696 89.6662 46.4696C94.7681 50.5259 98.1482 52.4733 104.3 51.4018L111.868 40.9165Z" fill="#FF7F4D" stroke="#FF7F4D" stroke-width="0.6" stroke-miterlimit="10"/>
<path d="M112.204 40.8828L109.147 49.9735C107.888 50.255 106.608 50.4356 105.321 50.5135L112.204 40.8828Z" fill="#CF5540"/>
<path d="M133.118 31.001C133.373 31.4262 133.568 32.0767 133.292 32.2511C133.015 32.4254 132.374 32.0342 132.118 31.626" fill="#CF5540"/>
<path d="M137.327 28.063C137.327 28.063 136.646 29.9976 136.655 29.9424L139.359 26.7236L137.327 28.063Z" fill="#CF5540"/>
<path d="M85.5379 0.625C90.0446 2.03239 101.303 17.2416 101.303 17.2416C103.256 19.0366 104.618 21.3821 105.21 23.9682C105.397 24.9291 104.747 27.7609 103.981 28.3519L88.9859 40.5337C88.9859 40.5337 76.9156 36.2563 79.828 26.9275C82.7403 17.5987 85.202 19.6142 83.7564 14.278C82.3109 8.9418 85.5379 0.625 85.5379 0.625Z" fill="#00043B"/>
<path d="M104.551 22.9224C103.796 20.7658 102.91 18.6571 101.898 16.6082C100.725 14.5254 99.3792 12.5442 97.876 10.6853C96.1914 8.36158 94.2645 6.2236 92.1278 4.30738C90.4527 2.86597 88.7266 1.49259 87.0259 0.0894539C86.7581 -0.131647 86.3712 0.251028 86.639 0.472128C89.1432 2.53857 91.8217 4.49021 94.0496 6.85004C95.0847 7.97936 96.0624 9.16006 96.9789 10.3877C98.4234 12.17 99.7499 14.0448 100.95 16.0002C102.225 18.2367 103.127 20.6773 104.037 23.0754C104.16 23.3986 104.687 23.2583 104.564 22.9309L104.551 22.9224Z" fill="#00043B"/>
<path d="M94.6874 24.6276C94.6678 24.6494 94.6439 24.6669 94.6171 24.6788C94.5904 24.6908 94.5615 24.697 94.5322 24.697C94.5029 24.697 94.4739 24.6908 94.4472 24.6788C94.4204 24.6669 94.3965 24.6494 94.377 24.6276C94.0411 24.2322 93.1313 23.3945 92.0173 24.2619C90.9034 25.1293 92.1066 26.6685 92.4425 27.3871C92.9229 28.4373 93.2928 31.6391 92.1704 34.254C91.3668 36.1461 88.1144 39.5052 88.1144 39.5052C88.1144 39.5052 92.5615 44.4799 95.8225 42.3029C95.8225 42.3029 96.1456 35.2957 97.2171 33.9096C97.2426 33.8798 100.01 35.5423 103.144 30.8397C106.12 26.4049 103.174 23.6369 102.468 23.0671C101.86 22.5909 99.1218 19.9845 94.6874 24.6276Z" fill="#FFA47A"/>
<path d="M96.0478 39.4668C95.9415 39.4668 91.4815 41.6523 91.4815 41.6523C91.4815 41.6523 93.5393 43.7442 95.8139 42.3028L96.0478 39.4668Z" fill="#CF5540"/>
<path d="M102.123 31.9407L99.6276 30.5503C99.6276 30.5503 99.5809 32.098 100.376 32.3744C101.171 32.6508 102.123 31.9407 102.123 31.9407Z" fill="white"/>
<path d="M93.9603 25.2649C93.6287 24.9248 92.9952 24.7675 92.655 25.0991C92.5061 25.2991 92.4326 25.5452 92.4474 25.7942C92.4621 26.0431 92.5643 26.2788 92.7358 26.4597" fill="#CF5540"/>
<path d="M102.009 29.7891L101.158 30.9711L101.847 31.2772C101.876 31.2899 101.908 31.2947 101.939 31.2914C101.971 31.2881 102.001 31.2766 102.026 31.2582C102.052 31.2398 102.073 31.215 102.086 31.1863C102.099 31.1576 102.105 31.1259 102.102 31.0944L102.009 29.7891Z" fill="#CF5540"/>
<path d="M104.462 25.2226C104.462 25.2226 97.234 26.749 94.3769 24.6273C91.5198 22.5056 98.9091 16.9398 101.668 20.2393C104.428 23.5388 104.462 25.2226 104.462 25.2226Z" fill="#00043B"/>
<path d="M97.2297 33.918C96.1473 33.3482 95.268 32.457 94.7128 31.3669C94.2068 30.3506 94.2068 35.2872 96.4134 36.4692C96.4304 36.4309 96.8258 35.0916 97.2297 33.918Z" fill="#CF5540"/>
<path d="M101.052 26.9999C100.737 27.0382 101.477 26.5109 101.834 26.5747C101.997 26.6018 102.142 26.6922 102.237 26.8262C102.333 26.9602 102.372 27.1266 102.344 27.289C101.96 27.0462 101.503 26.9441 101.052 26.9999Z" fill="#00043B"/>
<path d="M104.36 28.0333C104.238 27.9179 104.077 27.8535 103.909 27.8535C103.741 27.8535 103.58 27.9179 103.458 28.0333C103.755 28.1474 104.02 28.3329 104.228 28.5733" fill="#00043B"/>
<path d="M101.018 29.0196C100.907 29.2493 100.907 29.4789 101.018 29.5341C101.128 29.5894 101.307 29.4448 101.418 29.2152C101.528 28.9856 101.528 28.756 101.418 28.7008C101.307 28.6455 101.133 28.79 101.018 29.0196Z" fill="#00043B"/>
<path d="M102.604 29.7892C102.497 30.0061 102.497 30.2144 102.604 30.2782C102.71 30.342 102.884 30.1932 102.991 29.9763C103.097 29.7595 103.097 29.5511 102.991 29.4831C102.884 29.4151 102.71 29.5681 102.604 29.7892Z" fill="#00043B"/>
<path opacity="0.37" d="M96.5708 29.1514C96.4901 29.4131 96.4887 29.6929 96.5668 29.9554C96.645 30.2179 96.7991 30.4514 97.0098 30.6264C97.2205 30.8013 97.4783 30.91 97.7507 30.9385C98.023 30.9671 98.2978 30.9143 98.5402 30.7869C98.7826 30.6595 98.9818 30.4631 99.1127 30.2225C99.2436 29.9819 99.3003 29.7079 99.2757 29.4352C99.251 29.1624 99.1461 28.903 98.9742 28.6898C98.8023 28.4766 98.571 28.3191 98.3097 28.2373C98.1355 28.1827 97.9523 28.163 97.7705 28.1795C97.5887 28.1959 97.4119 28.2481 97.2504 28.333C97.0888 28.418 96.9456 28.534 96.829 28.6744C96.7123 28.8149 96.6246 28.977 96.5708 29.1514Z" fill="#E8632E" stroke="#E8632E" stroke-width="0.32" stroke-miterlimit="10"/>
<path d="M93.2885 23.067C94.1389 23.9811 94.8319 25.0271 95.814 25.7925C96.6838 26.4843 97.7845 26.8188 98.8922 26.7279C101.065 26.5833 103.471 25.9413 105.095 24.4191C105.304 24.2235 104.989 23.9089 104.781 24.1045C103.25 25.5374 100.954 26.1496 98.8922 26.2815C98.3305 26.3262 97.7657 26.2536 97.2336 26.0684C96.7015 25.8833 96.2138 25.5895 95.8012 25.2057C95.0232 24.4297 94.2894 23.6106 93.6032 22.7523C93.4118 22.5397 93.0972 22.8544 93.2885 23.067Z" fill="#00043B"/>
<path d="M30.3054 45.1559C29.7952 41.7969 29.4976 33.4971 29.4976 33.4971L15.1144 34.2752C16.9468 35.1596 23.3838 39.1564 23.3838 39.1564L24.5189 45.5343C24.5189 45.5343 30.3096 45.0964 30.3054 45.1559Z" fill="#FFA47A"/>
<path d="M23.3327 39.1476L14.923 34.4407C14.8366 34.3978 14.7662 34.3283 14.7223 34.2424C14.6783 34.1565 14.663 34.0588 14.6787 33.9636C14.6944 33.8684 14.7403 33.7808 14.8095 33.7136C14.8787 33.6464 14.9677 33.6031 15.0633 33.5903C18.5496 33.0503 27.9542 31.6642 30.4286 31.307C30.4988 31.2973 30.5703 31.3043 30.6374 31.3274C30.7044 31.3505 30.765 31.3891 30.8143 31.4401C30.8636 31.491 30.9002 31.5529 30.9211 31.6206C30.942 31.6884 30.9466 31.7601 30.9345 31.83C30.6667 33.5052 30.3095 38.1526 30.0842 39.5132C30.0502 39.7301 27.2909 36.2945 26.3301 36.8515C25.5095 37.3362 23.405 39.1178 23.3327 39.1476Z" fill="#64C962" stroke="#64C962" stroke-width="0.32" stroke-miterlimit="10"/>
<path d="M22.8353 38.9055L24.1618 37.1282C24.3123 36.925 24.3762 36.6705 24.3395 36.4203C24.3029 36.1701 24.1687 35.9446 23.9663 35.7931V35.7931C23.7624 35.6424 23.5072 35.5784 23.2564 35.6151C23.0055 35.6517 22.7793 35.786 22.627 35.9887L21.1432 37.9871" stroke="#F8F1EE" stroke-width="0.72" stroke-miterlimit="10"/>
<path d="M27.6737 41.2441C27.7629 43.2552 27.8905 45.2622 27.8905 45.2622L30.3989 45.1431L30.0758 39.505C30.0758 39.505 28.0223 37.1835 27.6949 37.2047C27.5333 37.2047 27.5801 39.2329 27.6949 41.2441" fill="#CF5540"/>
<path d="M19.9824 72.1469C17.7503 69.9274 15.5438 63.1626 15.5438 63.1626C15.5438 63.1626 0.297526 67.6909 0.425074 67.7377C0.552622 67.7845 9.6808 71.1988 9.6808 71.1988L15.2674 75.3827C15.2674 75.3827 19.5062 72.3936 19.9824 72.1469Z" fill="#FFA47A" stroke="#FFA47A" stroke-width="1.3" stroke-miterlimit="10"/>
<path d="M9.42576 71.433L0.365605 68.0612C0.281127 68.0267 0.208829 67.9679 0.157937 67.8921C0.107045 67.8164 0.0798645 67.7272 0.0798645 67.636C0.0798645 67.5447 0.107045 67.4556 0.157937 67.3798C0.208829 67.3041 0.281127 67.2452 0.365605 67.2108C3.74137 66.1818 12.8525 63.4733 15.2462 62.7675C15.5353 62.6825 16.0668 63.1502 16.156 63.4436C16.7399 65.3842 17.45 67.2847 18.2818 69.1327C18.3839 69.324 12.8525 68.1547 11.9767 68.8393C11.2369 69.4218 9.68511 71.586 9.42576 71.433Z" fill="#64C962" stroke="#64C962" stroke-width="0.32" stroke-miterlimit="10"/>
<path d="M8.70303 71.0332L9.60862 68.7669C9.6557 68.6508 9.67941 68.5265 9.67839 68.4012C9.67737 68.2759 9.65163 68.1521 9.60266 68.0367C9.55368 67.9214 9.48243 67.8169 9.39299 67.7291C9.30354 67.6414 9.19767 67.5721 9.08142 67.5254V67.5254C8.96531 67.4783 8.84105 67.4546 8.71575 67.4556C8.59046 67.4566 8.4666 67.4824 8.35128 67.5313C8.23595 67.5803 8.13142 67.6516 8.04368 67.741C7.95593 67.8305 7.8867 67.9364 7.83995 68.0526L6.90885 70.3614" stroke="#F8F1EE" stroke-width="0.72" stroke-miterlimit="10"/>
<path d="M16.5854 74.809L10.7565 70.1021L9.42996 71.4372L15.3652 75.7401L16.5854 74.809Z" fill="#CF5540"/>
<path d="M76.3416 61.0367C78.1868 61.7426 79.5133 63.286 80.1681 66.4537C80.8228 69.6214 83.9945 64.4808 83.901 67.6613C82.6637 68.3458 75.9292 77.0155 73.6036 77.9977C63.2807 82.2837 55.428 84.129 45.3857 82.1009C35.5688 80.1152 29.9652 68.9198 27.1039 61.5002C24.8505 55.6623 24.8888 50.8959 23.8599 44.9389C24.1575 44.2501 29.9694 44.0885 30.2841 44.3564C34.2423 56.6402 39.7269 63.4901 47.1842 64.8933C54.1525 66.2156 59.0886 65.1271 64.1906 63.4944C64.1991 63.4944 69.8877 58.5621 76.3416 61.0367Z" fill="#3748A6" stroke="#3748A6" stroke-width="0.3" stroke-miterlimit="10"/>
<g style="mix-blend-mode:multiply" opacity="0.43">
<g style="mix-blend-mode:multiply" opacity="0.43">
<path d="M47.1927 64.893C54.1611 66.2153 59.0972 65.1268 64.1991 63.4941C64.1991 63.4941 69.8963 58.5618 76.3502 61.0365C78.1954 61.7423 79.5219 63.2857 80.1766 66.4534C80.8314 69.6211 83.8033 64.8122 83.7267 67.9926C82.4895 68.6815 75.9378 77.0323 73.6122 77.9975" fill="#3748A6"/>
</g>
</g>
<path d="M83.3313 66.4749C80.1001 63.4985 73.9777 58.7449 73.4378 59.0765C67.8895 59.7398 62.4942 64.0768 60.0027 68.8305C59.5306 69.7514 58.9435 70.6087 58.2553 71.3816C55.1219 74.8767 51.5973 77.9084 45.7216 80.1661C38.6385 82.8916 29.9907 80.4255 20.1738 72.0875C19.0854 73.2355 15.2759 75.0298 15.3865 75.7739C19.3957 80.298 21.8744 84.0992 26.8658 87.8792C33.2007 92.6711 43.8722 99.2446 53.2555 95.7623C61.6167 92.7032 68.9191 87.2987 74.2881 80.1959L83.3313 66.4749Z" fill="#3F51B5" stroke="#3F51B5" stroke-width="0.3" stroke-miterlimit="10"/>
<g style="mix-blend-mode:multiply" opacity="0.5">
<path d="M73.1274 81.548C73.1274 81.548 44.8585 109.143 15.7861 75.4507C15.7861 75.4507 22.5249 87.118 36.3681 93.5554C37.0356 93.0792 51.4145 105.537 73.1274 81.548Z" fill="#3F51B5"/>
</g>
<path d="M96.018 40.0662C96.2178 40.4531 97.6039 50.475 95.6566 53.8467C94.3514 56.1088 86.9961 62.8524 83.7054 66.9895C83.7054 66.9895 77.0304 62.8438 73.2932 59.2552C74.3349 55.3519 77.8552 40.2108 85.0361 36.231C86.5497 36.5617 88.0431 36.9791 89.5088 37.481C89.5088 37.481 93.416 44.097 96.018 40.0662Z" fill="#FFA47A" stroke="#FFA47A" stroke-width="1.48" stroke-linecap="round" stroke-linejoin="round"/>
<path d="M73.5993 57.0103L73.2975 58.2008L81.418 65.3271L73.5993 57.0103Z" fill="#CF5540"/>
<path d="M96.018 40.0662C96.2178 40.4531 97.6039 50.475 95.6566 53.8467C94.3514 56.1088 86.9961 62.8524 83.7054 66.9895C83.7054 66.9895 81.6561 65.6246 72.5534 55.4327C73.5951 51.5252 77.8552 40.2108 85.0361 36.231C86.5497 36.5617 88.0431 36.9791 89.5088 37.481C89.5088 37.481 93.416 44.097 96.018 40.0662Z" fill="#F8F1EE" stroke="#F8F1EE" stroke-width="1.48" stroke-miterlimit="10"/>
<g style="mix-blend-mode:multiply">
<path d="M83.7054 66.9895C83.7054 66.9895 81.6561 65.6246 72.5534 55.4327C73.5951 51.5252 77.8552 40.2108 85.0361 36.231C86.5497 36.5617 88.0431 36.9791 89.5088 37.481" fill="#F8F1EE"/>
<path d="M83.7054 66.9895C83.7054 66.9895 81.6561 65.6246 72.5534 55.4327C73.5951 51.5252 77.8552 40.2108 85.0361 36.231C86.5497 36.5617 88.0431 36.9791 89.5088 37.481" stroke="#F8F1EE" stroke-width="1.48" stroke-linecap="round" stroke-linejoin="round"/>
</g>
<path d="M159.911 131.891L219.183 157.433C220.349 157.925 221.657 157.966 222.852 157.548C224.047 157.13 225.044 156.283 225.649 155.17L263.599 84.2566C265.104 81.4886 265.036 78.3294 262.056 77.3004C262.056 77.3004 249.165 65.6076 226.466 59.0171C219.888 57.1122 198.558 55.2456 198.558 55.2456L159.911 131.891Z" stroke="#F8F1EE" stroke-width="1.06" stroke-linecap="round" stroke-linejoin="round"/>
<path d="M162.568 132.979L106.583 100.269C105.494 99.6185 104.687 98.5856 104.318 97.3718C103.95 96.1581 104.046 94.8505 104.589 93.7041L138.032 22.2375C139.384 19.3887 142.599 19.1548 145.558 20.2391C154.886 23.6406 163.176 21.9058 181.871 36.3965C187.287 40.5974 201.364 56.7505 201.364 56.7505L162.568 132.979Z" stroke="#F8F1EE" stroke-width="1.06" stroke-linecap="round" stroke-linejoin="round"/>
<path d="M260.198 78.3422C260.198 78.3422 247.8 67.0958 225.964 60.7689C219.91 59.0128 200.858 57.2951 199.234 57.1505C197.495 55.1606 185.544 41.5756 180.723 37.8424C162.751 23.9173 154.788 25.6011 145.813 22.3143C142.977 21.2599 139.878 21.4937 138.602 24.2362L106.456 92.9306C105.935 94.0306 105.841 95.2852 106.193 96.4505C106.545 97.6158 107.317 98.6087 108.36 99.2362L162.062 130.616H162.135L218.957 155.417C220.078 155.891 221.335 155.931 222.484 155.53C223.633 155.128 224.592 154.314 225.173 153.244L261.69 85.039C263.14 82.3687 263.072 79.3329 260.198 78.3422Z" fill="#3748A6" stroke="#3748A6" stroke-width="0.3" stroke-miterlimit="10"/>
<path d="M158.823 129.03L164.936 132.219L202.839 57.5844C200.51 57.4206 198.315 56.4281 196.653 54.7866L158.823 129.03Z" fill="#1D2B47" stroke="#1D2B47" stroke-width="0.3" stroke-miterlimit="10"/>
<path d="M256.086 80.987C256.086 80.987 230.505 62.5123 198.354 58.8769C176.505 35.1596 146.68 25.4014 146.68 25.4014L110.967 94.759C118.101 96.6852 157.092 123.124 162.913 127.814L162.853 127.941C162.939 127.948 163.024 127.96 163.108 127.975C163.277 128.105 163.436 128.247 163.584 128.4L163.746 128.086C169.384 129.285 195.259 137.185 221.028 150.659L256.086 80.987Z" fill="#CFB2A3"/>
<path d="M180.497 44.8112C180.497 44.8112 183.899 34.7213 191.033 31.7662C191.127 31.727 191.23 31.7108 191.332 31.7188C191.435 31.7268 191.533 31.7588 191.621 31.8123C191.708 31.8658 191.782 31.9392 191.836 32.0265C191.889 32.1138 191.922 32.2126 191.93 32.3147L192.138 34.581L194.821 34.9467C194.942 34.9622 195.056 35.0117 195.149 35.0895C195.243 35.1673 195.313 35.2702 195.35 35.3861C195.388 35.502 195.391 35.6262 195.361 35.7442C195.33 35.8621 195.267 35.9689 195.178 36.0522C192.534 38.5268 185.501 45.7849 185.701 48.4721L180.497 44.8112Z" fill="#FF7F4D" stroke="#FF7F4D" stroke-width="0.6" stroke-miterlimit="10"/>
<g opacity="0.76">
<path opacity="0.76" d="M182.172 44.8366C182.474 44.084 182.661 43.2974 182.997 42.5575C183.309 41.8659 183.676 41.2005 184.094 40.5676C184.957 39.2954 185.909 38.0862 186.943 36.9492C187.368 36.4772 186.666 35.7799 186.25 36.2561C185.162 37.4616 184.157 38.7402 183.244 40.0829C182.815 40.7371 182.439 41.4238 182.117 42.1366C181.76 42.9359 181.547 43.7821 181.224 44.5899C180.99 45.1767 181.939 45.4403 182.168 44.8493L182.172 44.8366Z" fill="#F2FCF9"/>
<path opacity="0.76" d="M188.388 35.2359L189.528 34.2707C189.574 34.2251 189.61 34.1708 189.635 34.1109C189.66 34.0511 189.672 33.9869 189.672 33.9221C189.671 33.7929 189.619 33.6693 189.528 33.5777C189.436 33.4873 189.312 33.4356 189.183 33.4331C189.053 33.4374 188.929 33.4888 188.835 33.5777L187.695 34.5429C187.649 34.5877 187.613 34.6413 187.588 34.7004C187.563 34.7596 187.551 34.8231 187.551 34.8873C187.551 35.0173 187.602 35.1422 187.694 35.2345C187.785 35.3269 187.91 35.3794 188.04 35.3805C188.169 35.3733 188.292 35.3223 188.388 35.2359Z" fill="#F2FCF9"/>
</g>
<path d="M147.905 27.9777C152.798 26.7361 152.934 27.7098 157.828 28.9684C162.302 30.0184 166.592 31.7386 170.553 34.0707C174.571 36.405 179.443 39.73 182.772 42.9743C188.15 48.2169 192.976 53.0514 198.005 58.6384L162.755 126.499C162.755 126.499 129.376 86.4376 114.109 93.887L147.905 27.9777Z" fill="#F8F1EE"/>
<path d="M148.007 28.3438C149.512 27.9653 151.102 27.6039 152.662 27.8845C154.154 28.1524 155.587 28.7349 157.046 29.1601C158.976 29.6916 160.902 30.1891 162.789 30.8609C164.605 31.5095 166.375 32.2794 168.087 33.1655C171.647 35.0333 175.042 37.1996 178.235 39.6412C181.59 42.1923 184.519 45.2155 187.495 48.1833C190.995 51.6826 194.426 55.25 197.738 58.928L197.699 58.4645L196.755 60.2801L194.204 65.2208L190.408 72.5299L185.799 81.4037L180.727 91.1832L175.591 101.026L170.812 110.219L166.777 117.987L163.878 123.57L162.981 125.301C162.803 125.592 162.646 125.894 162.509 126.206C162.492 126.247 162.472 126.287 162.449 126.325L163.049 126.249C161.914 124.888 160.736 123.566 159.554 122.252C156.691 119.077 153.736 115.988 150.689 112.983C146.922 109.239 142.948 105.71 138.785 102.413C134.89 99.3639 130.749 96.4598 126.192 94.4997C122.79 93.0243 118.773 91.889 115.116 93.0965C114.713 93.2291 114.319 93.3896 113.939 93.577L114.461 94.0958L115.363 92.3397L117.816 87.552L121.464 80.4343L125.898 71.7858L130.754 62.3125L135.626 52.7541L140.196 43.8251L144.078 36.2524L146.854 30.8354C147.28 29.985 147.747 29.1346 148.172 28.2842C148.172 28.246 148.211 28.2119 148.228 28.1737C148.453 27.7485 147.803 27.3488 147.569 27.7867L146.68 29.5428L144.227 34.3305L140.579 41.4482L136.136 50.0967L131.285 59.5657L126.383 69.1284L121.813 78.0574L117.931 85.6301L115.154 91.0429C114.729 91.8932 114.262 92.7436 113.836 93.594L113.781 93.7046C113.741 93.7775 113.725 93.8616 113.737 93.9442C113.749 94.0267 113.787 94.1032 113.846 94.1619C113.906 94.2206 113.982 94.2584 114.065 94.2695C114.148 94.2806 114.232 94.2644 114.304 94.2233C117.633 92.6161 121.532 93.475 124.831 94.7548C129.312 96.5024 133.398 99.2619 137.208 102.157C141.377 105.373 145.352 108.833 149.112 112.519C152.272 115.575 155.331 118.734 158.287 121.997C159.245 123.049 160.189 124.109 161.119 125.177C161.544 125.675 161.969 126.249 162.437 126.712L162.492 126.776C162.533 126.817 162.583 126.848 162.638 126.867C162.694 126.886 162.752 126.892 162.81 126.885C162.868 126.877 162.923 126.857 162.972 126.825C163.021 126.793 163.062 126.75 163.091 126.7L164.035 124.884L166.586 119.943L170.387 112.634L174.996 103.76L180.068 93.9809L185.17 84.125L189.944 74.9323L194.005 67.181L196.909 61.5982C197.363 60.718 197.835 59.8464 198.278 58.9577C198.278 58.9195 198.316 58.8812 198.337 58.8429C198.377 58.7692 198.393 58.6848 198.382 58.6016C198.371 58.5184 198.335 58.4407 198.278 58.3795C195.27 55.0431 192.179 51.7833 189.005 48.6C185.965 45.5429 182.968 42.3752 179.579 39.7049C176.341 37.1491 172.892 34.8732 169.269 32.9018C165.825 31.0688 162.174 29.657 158.393 28.6967C157.322 28.4118 156.267 28.1141 155.2 27.7782C154.486 27.5294 153.757 27.3207 153.019 27.1532C151.268 26.8003 149.512 27.1532 147.803 27.5784C147.701 27.6055 147.614 27.6717 147.562 27.7626C147.509 27.8535 147.495 27.9616 147.522 28.0631C147.549 28.1646 147.615 28.2512 147.706 28.3038C147.797 28.3565 147.905 28.3708 148.007 28.3438Z" fill="#F8F1EE"/>
<path d="M216.155 144.141C204.496 136.6 191.528 131.311 177.921 128.545C174.126 127.78 170.295 127.213 166.442 126.844C165.953 126.797 165.957 127.562 166.442 127.609C184.021 129.308 200.936 135.207 215.76 144.808C216.185 145.076 216.555 144.417 216.143 144.149L216.155 144.141Z" fill="#F8F1EE"/>
<path d="M163.38 127.886C170.819 129.404 178.162 131.36 185.37 133.745C192.873 136.187 200.221 139.079 207.376 142.406C211.177 144.183 214.91 146.097 218.545 148.193C218.631 148.248 218.736 148.266 218.835 148.243C218.935 148.221 219.022 148.16 219.076 148.074C219.131 147.988 219.149 147.883 219.127 147.783C219.105 147.684 219.044 147.597 218.957 147.542C212.333 143.77 205.451 140.469 198.363 137.665C191.033 134.721 183.541 132.198 175.923 130.109C171.845 128.991 167.73 127.983 163.593 127.163C163.113 127.065 162.909 127.801 163.389 127.898L163.38 127.886Z" fill="#F8F1EE"/>
<path d="M116.145 94.2954C119.631 94.8311 122.829 96.3576 125.924 97.9818C128.891 99.538 131.79 101.215 134.618 103.012C140.275 106.606 145.623 110.664 150.609 115.143C153.398 117.651 156.065 120.285 158.61 123.043C158.946 123.404 159.486 122.86 159.15 122.503C149.97 112.571 139.201 104.237 127.284 97.8415C123.836 95.9919 120.256 94.1593 116.345 93.5598C115.865 93.4832 115.656 94.2188 116.141 94.2954H116.145Z" fill="#F8F1EE"/>
<path d="M114.194 94.6568C121.225 97.7888 128.006 101.455 134.478 105.623C141.274 109.943 147.805 114.667 154.035 119.769C157.318 122.456 160.506 125.255 163.601 128.166C163.954 128.502 164.499 127.967 164.137 127.626C158.493 122.325 152.529 117.373 146.28 112.8C139.811 108.009 133.043 103.634 126.017 99.7039C122.284 97.6332 118.471 95.7071 114.564 93.9978C114.117 93.8022 113.713 94.4612 114.177 94.6568H114.194Z" fill="#F8F1EE"/>
<path d="M253.757 81.9014L243.383 101.46C239.922 107.98 236.463 114.5 233.005 121.019L227.146 132.074C226.916 132.499 227.571 132.891 227.805 132.457C231.266 125.937 234.725 119.418 238.183 112.898L248.557 93.3391L254.416 82.284C254.645 81.8588 253.99 81.4634 253.757 81.8971V81.9014Z" fill="#F8F1EE"/>
<path d="M252.689 80.9486C250.806 76.2715 249.943 76.7222 246.044 73.512C242.146 70.3018 239.029 68.2693 234.416 66.2369C230.164 64.3618 224.608 62.3846 220.024 61.6023C212.622 60.3267 205.922 59.5061 198.448 58.7407L162.836 126.938C162.836 126.938 216.831 131.81 219.808 148.533L252.689 80.9486Z" fill="#F8F1EE"/>
<path d="M253.055 80.8466C252.575 79.4816 251.883 78.2003 251.006 77.0496C250.228 76.2158 249.353 75.4778 248.4 74.8513C246.89 73.7458 245.47 72.5213 243.978 71.3902C242.396 70.1815 240.734 69.0806 239.004 68.095C235.344 66.0887 231.5 64.4398 227.524 63.1712C225.479 62.4816 223.395 61.9137 221.283 61.4705C219.017 61.007 216.712 60.6839 214.425 60.3437C209.115 59.5528 203.796 58.9235 198.439 58.375C198.373 58.374 198.307 58.3908 198.25 58.4237C198.192 58.4567 198.144 58.5045 198.112 58.5621L197.168 60.3777L194.579 65.3355L190.752 72.6743L186.075 81.6034L180.948 91.4169L175.778 101.315L170.957 110.551L166.884 118.353L163.95 123.965C163.487 124.854 163.01 125.734 162.56 126.631C162.56 126.67 162.522 126.708 162.5 126.746C162.468 126.804 162.452 126.87 162.452 126.936C162.452 127.002 162.47 127.068 162.503 127.125C162.536 127.183 162.583 127.231 162.64 127.265C162.697 127.299 162.761 127.318 162.828 127.32C164.613 127.482 166.395 127.694 168.172 127.92C172.506 128.467 176.82 129.14 181.114 129.939C186.47 130.904 191.772 132.147 196.998 133.664C201.896 135.11 206.776 136.84 211.236 139.409C214.434 141.254 217.911 143.797 219.123 147.462C219.248 147.846 219.348 148.238 219.421 148.635C219.441 148.707 219.482 148.771 219.539 148.82C219.596 148.869 219.666 148.9 219.74 148.909C219.814 148.919 219.889 148.906 219.957 148.874C220.024 148.841 220.08 148.789 220.118 148.725L220.994 146.922L223.383 142.015L226.92 134.753L231.257 125.824L235.985 116.112L240.759 106.307L245.211 97.1655L248.969 89.4397L251.695 83.8952C252.12 83.015 252.545 82.1391 252.97 81.2547C252.97 81.2165 253.008 81.1782 253.025 81.1399C253.242 80.7147 252.6 80.3151 252.371 80.7573L251.49 82.5601L249.101 87.4711L245.564 94.7334L241.227 103.641L236.491 113.357L231.716 123.136L227.265 132.278L223.506 140.008L220.798 145.565L219.948 147.304C219.786 147.595 219.644 147.896 219.523 148.206C219.523 148.244 219.484 148.282 219.467 148.321L220.165 148.41C219.476 144.621 216.394 141.807 213.324 139.774C209.111 136.985 204.281 135.144 199.493 133.609C194.215 131.958 188.847 130.612 183.414 129.578C178.831 128.679 174.223 127.927 169.592 127.32C168.091 127.12 166.59 126.933 165.085 126.768L163.665 126.614C163.422 126.571 163.176 126.547 162.93 126.542C162.899 126.546 162.867 126.546 162.836 126.542L163.168 127.116L164.12 125.296L166.701 120.33L170.527 112.995L175.204 104.045L180.306 94.2359L185.48 84.3374L190.301 75.1064L194.375 67.3041L197.308 61.6916L198.218 59.944C198.399 59.6507 198.559 59.3453 198.698 59.0298C198.715 58.9899 198.735 58.9515 198.758 58.915L198.426 59.1021C203.103 59.5869 207.78 60.1226 212.414 60.8029C216.793 61.4237 221.189 62.0317 225.437 63.3115C229.435 64.4933 233.318 66.0331 237.039 67.9122C238.734 68.7841 240.368 69.767 241.933 70.8545C243.582 72.0025 245.109 73.2994 246.695 74.5367C247.787 75.3871 249.003 76.1269 249.99 77.0878C251.095 78.1721 251.729 79.639 252.298 81.0379C252.502 81.5014 253.242 81.3015 253.055 80.8466Z" fill="#F8F1EE"/>
<path opacity="0.42" d="M197.67 58.8042C197.67 58.8042 176.531 93.6021 164.537 98.4195C148.024 105.065 126.795 94.6481 126.795 94.6481C126.795 94.6481 159.171 115.517 162.738 126.538L197.67 58.8042Z" fill="#E0CFC8"/>
<path opacity="0.42" d="M200.854 58.2095C200.854 58.2095 185.863 96.0518 189.247 108.527C193.924 125.705 215.029 136.347 215.029 136.347C215.029 136.347 178.852 123.12 167.938 126.912L200.854 58.2095Z" fill="#E0CFC8"/>
<g opacity="0.46">
<path opacity="0.46" d="M149.86 35.6569C150.572 35.6057 151.288 35.6544 151.986 35.8015C152.33 35.8525 152.658 35.9545 152.994 36.0311C153.33 36.1076 153.644 36.2394 153.972 36.3457C154.299 36.452 154.609 36.5966 154.92 36.7369C155.23 36.8772 155.545 37.026 155.842 37.2089C156.473 37.5522 157.052 37.9815 157.564 38.4844L157.534 38.5695C156.233 38.1443 154.954 37.6596 153.661 37.2046C152.369 36.7497 151.11 36.2607 149.835 35.7547L149.86 35.6569Z" fill="#64C962"/>
<path opacity="0.46" d="M161.705 40.9888L162.76 41.414L163.801 41.8392L165.859 42.7703L167.879 43.795C168.538 44.1565 169.192 44.5349 169.851 44.9006C170.51 45.2662 171.148 45.6787 171.786 46.0783L173.682 47.3242L175.523 48.6423L177.33 50.0114L179.077 51.457C179.643 51.9545 180.221 52.4435 180.778 52.9495L182.423 54.5099C182.963 55.0372 183.486 55.5814 184.013 56.1214C184.541 56.6614 185.038 57.2269 185.54 57.7924L187.002 59.5187L188.38 61.313C188.826 61.9168 189.26 62.5333 189.685 63.1541L189.613 63.2137C181.901 54.0093 172.391 46.4756 161.667 41.0738L161.705 40.9888Z" fill="#64C962"/>
<path opacity="0.46" d="M145.039 44.1182H145.957L146.876 44.1522L148.717 44.3138L150.541 44.5986C151.144 44.7219 151.744 44.8665 152.347 44.9983C152.951 45.1301 153.542 45.3215 154.133 45.5L155.889 46.0953C156.467 46.3207 157.037 46.563 157.59 46.7969L159.29 47.575L160.923 48.4594C161.45 48.7783 161.986 49.0887 162.513 49.4203L164.039 50.4706C164.537 50.8362 165.022 51.2189 165.506 51.6016C165.991 51.9843 166.45 52.4009 166.909 52.8091L168.231 54.0847L169.46 55.4623C169.851 55.9343 170.23 56.419 170.595 56.908L170.527 56.9718C163.759 49.8862 154.744 45.3663 145.018 44.1819L145.039 44.1182Z" fill="#64C962"/>
<path opacity="0.46" d="M175.115 61.9468C176.08 62.3457 177.005 62.8385 177.874 63.4179C178.299 63.6858 178.724 63.9962 179.15 64.2683C179.575 64.5405 179.962 64.8891 180.366 65.2038C180.769 65.5184 181.148 65.8628 181.53 66.2072C181.913 66.5516 182.287 66.896 182.64 67.2745C183.385 68.0063 184.055 68.8095 184.643 69.6726L184.587 69.7406L179.796 65.9138L175.064 62.0063L175.115 61.9468Z" fill="#64C962"/>
<path opacity="0.46" d="M138.385 62.4185C139.389 62.6863 140.405 62.9372 141.395 63.2688L142.892 63.7408C143.389 63.8981 143.878 64.0767 144.376 64.2468C146.34 64.9569 148.27 65.769 150.183 66.6194C153.996 68.3612 157.659 70.4132 161.135 72.7549C164.62 75.0929 167.902 77.7184 170.948 80.604C172.474 82.0369 173.924 83.5421 175.349 85.0686C176.042 85.8467 176.73 86.6333 177.415 87.4199C178.099 88.2065 178.771 88.9973 179.43 89.8052L179.366 89.869C176.48 86.8926 173.597 83.8738 170.481 81.1227C167.378 78.3593 164.087 75.8134 160.634 73.5033C157.189 71.1763 153.591 69.0852 149.864 67.2444C146.137 65.4106 142.293 63.8268 138.355 62.5035L138.385 62.4185Z" fill="#64C962"/>
<path opacity="0.46" d="M135.596 70.0127C136.825 70.1648 138.034 70.45 139.202 70.8631C139.793 71.0459 140.354 71.2883 140.928 71.5136C141.502 71.739 142.042 72.0239 142.594 72.2875C143.147 72.5511 143.678 72.8657 144.206 73.1804C144.733 73.495 145.252 73.8182 145.745 74.1838C146.767 74.8841 147.709 75.694 148.555 76.5989L148.504 76.6755C144.404 74.0894 140.071 71.8916 135.562 70.1105L135.596 70.0127Z" fill="#64C962"/>
<path opacity="0.46" d="M154.108 81.2588L154.758 81.6372L155.396 82.0326L156.671 82.8192C157.5 83.3635 158.325 83.9163 159.133 84.4903C159.941 85.0643 160.732 85.6553 161.531 86.2378L163.882 88.0534C164.643 88.6827 165.417 89.2992 166.174 89.937C166.93 90.5748 167.687 91.2126 168.419 91.8844C169.15 92.5562 169.885 93.2195 170.604 93.9041C171.322 94.5886 172.024 95.2902 172.691 96.03L172.615 96.0938L163.3 88.7379L154.035 81.3141L154.108 81.2588Z" fill="#64C962"/>
<path opacity="0.46" d="M141.025 92.1138C141.889 92.033 142.759 92.1418 143.576 92.4327C143.979 92.5664 144.372 92.7254 144.754 92.9089C145.128 93.1002 145.49 93.3341 145.847 93.5297C146.204 93.7253 146.535 94.0102 146.859 94.2738C147.177 94.5417 147.483 94.8255 147.773 95.1242C148.373 95.7235 148.875 96.4137 149.261 97.1694L149.197 97.2331C147.995 96.1587 146.716 95.1738 145.371 94.2865C144.698 93.8408 143.998 93.4375 143.275 93.079C142.553 92.7192 141.8 92.426 141.025 92.2031V92.1138Z" fill="#64C962"/>
<path opacity="0.46" d="M152.003 100.006C153.096 100.644 154.135 101.369 155.111 102.174C155.608 102.557 156.068 102.982 156.544 103.386C157.02 103.79 157.462 104.237 157.917 104.662C158.372 105.087 158.806 105.542 159.235 105.993C159.664 106.443 160.085 106.903 160.511 107.387C161.347 108.335 162.108 109.347 162.785 110.415L162.721 110.483L157.309 105.304L151.961 100.07L152.003 100.006Z" fill="#64C962"/>
<path opacity="0.46" d="M202.801 68.0608C203.604 67.8715 204.431 67.8027 205.254 67.8567C205.658 67.8567 206.054 67.9247 206.453 67.9672C206.853 68.0097 207.244 68.1118 207.635 68.1926C208.026 68.2734 208.413 68.4009 208.792 68.5285C209.173 68.6507 209.547 68.7927 209.914 68.9537C210.671 69.2756 211.377 69.7052 212.01 70.2293L211.98 70.3143C210.475 69.8423 208.966 69.3959 207.427 69.0387C205.888 68.6815 204.344 68.3754 202.788 68.1203L202.801 68.0608Z" fill="#64C962"/>
<path opacity="0.46" d="M217.592 72.041C218.8 72.1643 219.982 72.4152 221.172 72.6405L222.937 73.0657C223.523 73.2273 224.102 73.4101 224.684 73.5802C225.267 73.7503 225.836 73.9586 226.385 74.1627L228.085 74.8133C228.647 75.0471 229.199 75.298 229.756 75.5404L231.406 76.3142L233.013 77.1646C233.54 77.4665 234.076 77.7556 234.599 78.066L236.138 79.0355C236.644 79.3714 237.146 79.7158 237.639 80.0644C238.132 80.4131 238.621 80.7788 239.101 81.1487L240.509 82.2967C241.406 83.1131 242.315 83.9082 243.14 84.7968L243.085 84.8691C235.585 78.8378 226.877 74.4878 217.55 72.1133L217.592 72.041Z" fill="#64C962"/>
<path opacity="0.46" d="M198.749 77.2579C200.372 77.0715 202.011 77.0872 203.63 77.3047C204.442 77.394 205.242 77.5598 206.045 77.7299C206.441 77.8192 206.836 77.9297 207.231 78.0318L208.409 78.3719L209.561 78.7971C209.944 78.9502 210.326 79.0862 210.701 79.2478C211.445 79.588 212.189 79.9196 212.903 80.3236C214.343 81.0934 215.683 82.0389 216.891 83.1383L216.844 83.2149C211.342 79.894 205.146 77.8929 198.741 77.3685L198.749 77.2579Z" fill="#64C962"/>
<path opacity="0.46" d="M223.302 85.6172C224.922 86.0144 226.507 86.5405 228.043 87.1904C228.817 87.4965 229.565 87.858 230.322 88.1981C231.079 88.5383 231.801 88.9422 232.541 89.3249C233.281 89.7076 233.987 90.1413 234.688 90.5664C235.39 90.9916 236.1 91.4381 236.78 91.9186C238.165 92.8473 239.474 93.8837 240.696 95.0182L240.645 95.0948C237.861 93.3345 235.014 91.6762 232.103 90.12C229.192 88.5638 226.243 87.0898 223.256 85.698L223.302 85.6172Z" fill="#64C962"/>
<path opacity="0.46" d="M193.095 88.0492C193.917 88.0239 194.74 88.0996 195.544 88.2745C195.943 88.3383 196.322 88.4574 196.713 88.5467C197.104 88.6359 197.47 88.7848 197.852 88.9038C198.235 89.0229 198.596 89.1844 198.962 89.329C199.328 89.4736 199.693 89.6437 200.046 89.8435C200.783 90.2098 201.472 90.6638 202.1 91.1956L202.07 91.2806C200.556 90.7917 199.06 90.2559 197.55 89.7414C196.041 89.227 194.574 88.6827 193.065 88.1215L193.095 88.0492Z" fill="#64C962"/>
<path opacity="0.46" d="M205.454 92.8285C205.844 92.7642 206.242 92.7642 206.632 92.8285C206.959 92.8813 207.279 92.9741 207.584 93.1049C207.886 93.2397 208.171 93.408 208.435 93.6066C208.749 93.8442 209.024 94.1314 209.247 94.457L209.225 94.542C208.538 94.412 207.866 94.2082 207.223 93.934C206.58 93.6553 205.969 93.3089 205.399 92.9008L205.454 92.8285Z" fill="#64C962"/>
<path opacity="0.46" d="M184.706 103.203L186.109 103.377L187.504 103.573L190.284 104.062L193.039 104.691L195.778 105.406C196.683 105.669 197.584 105.937 198.486 106.226L201.16 107.153L203.796 108.186L206.398 109.305C209.84 110.862 213.16 112.675 216.33 114.73L218.668 116.316L220.96 117.974L223.158 119.747C223.878 120.351 224.586 120.971 225.284 121.606L225.228 121.674C213.326 112.485 199.448 106.192 184.694 103.292L184.706 103.203Z" fill="#64C962"/>
<path opacity="0.46" d="M195.926 114.832C196.826 114.489 197.809 114.427 198.745 114.654C199.206 114.745 199.658 114.875 200.097 115.041C200.522 115.207 200.947 115.406 201.373 115.606C201.798 115.806 202.163 116.061 202.542 116.312C202.92 116.563 203.29 116.831 203.63 117.133C204.342 117.709 204.983 118.366 205.539 119.093L205.488 119.169C203.996 118.204 202.512 117.218 200.952 116.406C200.177 115.981 199.367 115.621 198.533 115.33C197.704 115.029 196.824 114.892 195.943 114.926L195.926 114.832Z" fill="#64C962"/>
<path opacity="0.46" d="M209.714 121.125C210.847 121.411 211.952 121.795 213.018 122.274C213.558 122.49 214.068 122.758 214.591 122.996C215.114 123.234 215.607 123.532 216.117 123.8C216.627 124.068 217.116 124.374 217.605 124.65C218.094 124.927 218.583 125.258 219.051 125.599C220.022 126.251 220.935 126.985 221.78 127.793L221.738 127.873L215.679 124.582L209.667 121.181L209.714 121.125Z" fill="#64C962"/>
</g>
<path d="M81.6647 41.3803C80.2531 60.7011 110.614 71.4883 110.614 71.4883L117.416 73.3038C123.441 77.0328 126.506 77.5303 126.506 77.5303L122.535 75.1449L128.641 77.0541C128.806 77.1051 128.411 76.6629 128.258 76.5821L123.581 74.0777L129.857 75.6509C129.884 75.655 129.913 75.6494 129.937 75.6351C129.961 75.6208 129.98 75.5987 129.99 75.5724C130 75.5461 130 75.5172 129.991 75.4905C129.983 75.4638 129.965 75.4409 129.942 75.4256L124.062 72.4492C124.062 72.4492 130.095 73.8353 129.589 73.2996C129.083 72.7639 123.148 70.421 123.148 70.421C123.148 70.421 125.09 67.5467 124.916 67.2916C124.631 66.8664 122.552 68.0995 120.422 68.4354C119.083 68.6437 108.981 64.3493 108.981 64.3493C101.252 60.8797 91.2435 52.193 92.4 39.7518C92.4 39.7518 91.9238 35.6231 86.9324 35.2065C81.941 34.7898 81.6647 41.3803 81.6647 41.3803Z" fill="#FFA47A" stroke="#FFA47A" stroke-width="1.48" stroke-linecap="round" stroke-linejoin="round"/>
<path d="M98.7688 56.6105C94.8659 52.2778 93.7307 47.5071 92.4254 39.7601C92.4254 39.7601 91.9493 35.6315 86.9579 35.2148C81.9665 34.7981 81.6646 41.3801 81.6646 41.3801C81.1885 47.8813 81.4818 51.7676 85.8355 56.2619L98.7688 56.6105Z" fill="#FF7F4D" stroke="#FF7F4D" stroke-width="0.6" stroke-miterlimit="10"/>
<path d="M99.16 56.8911L89.5812 59.1786C88.685 58.4128 87.8687 57.558 87.145 56.6274L99.16 56.8911Z" fill="#CF5540"/>
<path d="M151.654 121.469C147.773 132.333 140.286 139.183 129.546 138.43C120.911 137.827 112.905 133.894 105.159 130.033C102.502 128.71 99.785 127.341 97.7868 125.147C94.8532 121.916 93.9093 117.392 93.0802 113.106C92.2512 108.82 91.4264 104.559 90.5973 100.286C89.9681 97.0293 89.2921 93.666 87.3831 90.932C85.4741 88.198 81.9666 86.3314 78.8076 87.3434C75.6487 88.3553 74.0161 93.0495 76.5288 95.2435C81.7837 92.0885 81.4351 84.3755 79.6537 78.5078C76.6627 68.6861 71.5869 59.6258 64.7731 51.946C60.0963 46.6991 54.1016 41.9114 47.0865 41.5967C38.0093 41.1716 30.3734 48.2936 25.1525 55.7302C19.7402 63.4347 15.5609 72.3128 14.9784 81.701C14.685 86.4292 15.6034 91.7399 19.3788 94.5972C23.1542 97.4545 30.1098 95.5326 30.2714 90.8002" stroke="#FF7F4D" stroke-width="2.12" stroke-linecap="round" stroke-linejoin="round" stroke-dasharray="9.09 9.09"/>
<g style="mix-blend-mode:lighten">
<path d="M243.098 83.364C245.649 84.4184 248.646 83.8529 250.993 82.4158C253.34 80.9786 255.109 78.7676 256.592 76.4631C258.667 73.2103 260.308 69.3326 259.492 65.5611C259.067 63.5797 257.995 61.8024 256.818 60.1569C255.404 58.0545 253.631 56.2179 251.58 54.7314C249.501 53.3119 247.09 52.4559 244.581 52.247C242.073 52.0381 239.553 52.4833 237.268 53.5394C234.983 54.5954 233.011 56.226 231.545 58.2719C230.079 60.3179 229.168 62.7092 228.902 65.2124" stroke="#F8F1EE" stroke-width="2.12" stroke-linecap="round" stroke-linejoin="round" stroke-dasharray="7.33 7.33"/>
</g>
<path d="M277.731 109.785C277.665 110.135 277.496 110.456 277.247 110.71C276.997 110.963 276.678 111.137 276.33 111.209C275.982 111.281 275.62 111.249 275.291 111.115C274.961 110.982 274.678 110.754 274.478 110.46C274.278 110.166 274.17 109.82 274.167 109.464C274.163 109.109 274.266 108.76 274.46 108.463C274.655 108.165 274.934 107.932 275.261 107.793C275.588 107.654 275.949 107.615 276.299 107.681C276.767 107.771 277.18 108.044 277.449 108.438C277.717 108.832 277.819 109.316 277.731 109.785Z" fill="#64C962"/>
<path d="M257.366 105.283C258.69 105.283 259.764 104.209 259.764 102.884C259.764 101.56 258.69 100.486 257.366 100.486C256.042 100.486 254.968 101.56 254.968 102.884C254.968 104.209 256.042 105.283 257.366 105.283Z" stroke="#64C962" stroke-width="1.06" stroke-miterlimit="10"/>
<path d="M177.292 25.9368C177.209 26.374 176.998 26.7769 176.687 27.0944C176.375 27.412 175.976 27.6299 175.541 27.7207C175.105 27.8116 174.652 27.7711 174.24 27.6046C173.827 27.4381 173.473 27.1529 173.223 26.7852C172.972 26.4174 172.837 25.9837 172.833 25.5387C172.829 25.0938 172.957 24.6577 173.201 24.2856C173.445 23.9135 173.794 23.6221 174.203 23.4482C174.613 23.2744 175.065 23.226 175.502 23.3091C175.792 23.3637 176.069 23.4751 176.316 23.6368C176.563 23.7985 176.776 24.0074 176.942 24.2515C177.108 24.4956 177.225 24.7701 177.285 25.0593C177.345 25.3485 177.347 25.6467 177.292 25.9368Z" fill="#FF7F4D"/>
<path d="M162.76 138.418C162.672 138.884 162.447 139.313 162.115 139.652C161.783 139.991 161.358 140.223 160.894 140.32C160.43 140.417 159.948 140.374 159.508 140.197C159.068 140.02 158.691 139.717 158.423 139.325C158.156 138.934 158.01 138.471 158.006 137.997C158.001 137.523 158.137 137.058 158.396 136.661C158.655 136.264 159.027 135.953 159.463 135.767C159.899 135.581 160.38 135.528 160.846 135.616C161.156 135.674 161.451 135.793 161.715 135.965C161.979 136.138 162.206 136.36 162.384 136.62C162.561 136.881 162.686 137.173 162.75 137.482C162.815 137.79 162.818 138.108 162.76 138.418V138.418Z" stroke="#FF7F4D" stroke-width="1.06" stroke-miterlimit="10"/>
<path d="M102.089 83.1595C101.985 83.713 101.718 84.2231 101.323 84.6251C100.929 85.0272 100.424 85.3032 99.8724 85.4183C99.321 85.5334 98.7478 85.4823 98.2253 85.2717C97.7028 85.061 97.2546 84.7001 96.9372 84.2347C96.6198 83.7692 96.4475 83.2201 96.4421 82.6568C96.4367 82.0934 96.5985 81.5411 96.9069 81.0697C97.2154 80.5983 97.6567 80.2289 98.175 80.0083C98.6934 79.7877 99.2655 79.7257 99.819 79.8302C100.187 79.8991 100.538 80.04 100.851 80.2448C101.165 80.4495 101.434 80.7142 101.645 81.0235C101.856 81.3328 102.004 81.6807 102.08 82.0472C102.156 82.4138 102.16 82.7917 102.089 83.1595Z" fill="#64C962" stroke="#64C962" stroke-width="1.06" stroke-linecap="round" stroke-linejoin="round" stroke-dasharray="9.09 9.09"/>
<path d="M49.5735 119.284C50.609 119.284 51.4485 118.444 51.4485 117.409C51.4485 116.373 50.609 115.534 49.5735 115.534C48.538 115.534 47.6986 116.373 47.6986 117.409C47.6986 118.444 48.538 119.284 49.5735 119.284Z" fill="#FF7F4D"/>
<path d="M7.49123 102.731C8.70989 102.731 9.69781 101.743 9.69781 100.525C9.69781 99.3059 8.70989 98.3179 7.49123 98.3179C6.27257 98.3179 5.28465 99.3059 5.28465 100.525C5.28465 101.743 6.27257 102.731 7.49123 102.731Z" stroke="#64C962" stroke-width="0.95" stroke-miterlimit="10"/>
</g>
<defs>
<clipPath id="clip0_51_370">
<rect width="282" height="166" fill="white"/>
</clipPath>
</defs>
</svg>
