<svg width="184" height="180" viewBox="0 0 184 180" fill="none" xmlns="http://www.w3.org/2000/svg">
<path d="M101.665 27.5415L100.035 27.3211L100.908 20.8627L106.965 21.3577L103.87 9.2615L116.132 15.8948L115.35 17.3415L106.395 12.4976L109.13 23.1843L102.329 22.629L101.665 27.5415Z" fill="#3F51B5"/>
<path d="M180.163 151.163C178.953 151.163 177.97 152.146 177.97 153.356C177.97 154.565 178.953 155.549 180.163 155.549C181.371 155.549 182.355 154.565 182.355 153.356C182.355 152.146 181.371 151.163 180.163 151.163ZM180.163 157.193C178.046 157.193 176.325 155.472 176.325 153.356C176.325 151.24 178.046 149.518 180.163 149.518C182.278 149.518 184 151.24 184 153.356C184 155.472 182.278 157.193 180.163 157.193ZM11.4789 127.254L13.6937 132.183L17.3371 127.992L11.4789 127.254ZM13.2474 135.204L8.77844 125.256L20.6 126.746L13.2474 135.204Z" fill="#64C962"/>
<path d="M173.821 97.7417L176.035 102.671L179.679 98.4796L173.821 97.7417ZM175.589 105.691L171.12 95.7435L182.941 97.233L175.589 105.691Z" fill="#3F51B5"/>
<path d="M119.048 77.9727L149.95 86.4376L146.564 98.7986L115.604 90.542L119.048 77.9727ZM153.116 116.078L162.896 80.3728L119.251 68.4174C117.128 67.8358 114.939 69.083 114.358 71.2062L109.088 88.6025L113.002 116.078H153.116Z" fill="#3748A6"/>
<path d="M154.285 116.172L152.698 115.738L163.223 77.3182L115.73 64.3087C113.826 63.7862 111.85 64.9122 111.328 66.8178L109.267 73.6243L107.693 73.1474L109.748 66.3622C110.503 63.6037 113.383 61.9607 116.165 62.7227L165.244 76.1664L154.285 116.172Z" fill="#3F51B5"/>
<path d="M116.672 89.7582L145.988 97.7883L148.94 87.0139L119.623 78.9831L116.672 89.7582ZM147.14 99.809L114.652 90.91L118.472 76.9625L150.96 85.8621L147.14 99.809Z" fill="#3F51B5"/>
<path d="M134.133 89.6025L123.318 86.6395L123.752 85.0529L134.568 88.016L134.133 89.6025ZM141.859 91.7186L138.769 90.8722L139.204 89.2857L142.293 90.1321L141.859 91.7186Z" fill="#FF7F4D"/>
<path d="M52.1341 73.3152L89.3969 68.2925L92.3293 90.9466L55.0659 95.9693L52.1341 73.3152ZM109.035 116.147L100.893 55.7451L46.6427 63.0576C44.0058 63.4129 42.1562 65.8387 42.512 68.4756L49.0022 116.626L109.035 116.147Z" fill="#3748A6"/>
<path d="M108.181 116.065L99.5875 52.3074L42.1474 60.0497C39.7704 60.3704 38.0967 62.5649 38.4169 64.9425L45.1976 115.247L43.5684 115.467L36.787 65.1623C36.3457 61.8856 38.652 58.8612 41.9276 58.4199L100.998 50.4577L109.811 115.845L108.181 116.065Z" fill="#3F51B5"/>
<path d="M52.9438 74.1441L55.767 95.0884L91.4197 90.2828L88.597 69.338L52.9438 74.1441ZM54.3565 96.938L51.0941 72.7341L90.007 67.4883L93.2694 91.6928L54.3565 96.938Z" fill="#3F51B5"/>
<path d="M60.5901 80.7056L60.3708 79.0757L73.4198 77.3166L73.6391 78.9464L60.5901 80.7056ZM79.232 78.1926L79.0121 76.5628L82.7405 76.0601L82.9603 77.6905L79.232 78.1926Z" fill="#FF7F4D"/>
<path d="M58.7345 167.339C55.8624 167.339 53.5265 164.347 53.5265 160.669V148.422H55.1711V160.669C55.1711 163.394 56.8026 165.694 58.7345 165.694C60.6658 165.694 62.2978 163.394 62.2978 160.669V144.585H63.9424V160.669C63.9424 164.347 61.606 167.339 58.7345 167.339ZM83.952 167.659C81.08 167.659 78.7441 164.667 78.7441 160.99V138.006H80.3887V160.99C80.3887 163.713 82.0201 166.014 83.952 166.014C85.8834 166.014 87.5154 163.713 87.5154 160.99V134.717H89.16V160.99C89.16 164.667 86.8235 167.659 83.952 167.659ZM108.621 167.647C105.749 167.647 103.413 164.711 103.413 161.101V134.717H105.058V161.101C105.058 163.758 106.69 166.002 108.621 166.002C110.586 166.002 112.185 163.701 112.185 160.872V134.717H113.829V160.872C113.829 164.671 111.542 167.647 108.621 167.647ZM133.839 167.641C130.967 167.641 128.631 164.705 128.631 161.095V134.717H130.276V161.095C130.276 163.752 131.907 165.996 133.839 165.996C135.77 165.996 137.402 163.752 137.402 161.095V134.717H139.047V161.095C139.047 164.705 136.71 167.641 133.839 167.641Z" fill="#3F51B5"/>
<path d="M144.462 179.122H50.8517C43.56 179.122 37.6284 173.189 37.6284 165.898V154.452H39.273V165.898C39.273 172.283 44.4673 177.477 50.8517 177.477H144.462C150.847 177.477 156.041 172.283 156.041 165.898V134.717H157.686V165.898C157.686 173.189 151.754 179.122 144.462 179.122Z" fill="#3F51B5"/>
<path d="M20.9256 150.993L24.5022 159.663L99.9981 128.524L96.4216 119.854L20.9256 150.993ZM23.6086 161.81L18.7783 150.099L97.3151 117.706L102.145 129.417L23.6086 161.81Z" fill="#3F51B5"/>
<path d="M163.716 135.265H88.0636V133.62H162.072V116.626H33.791V133.62H57.9121V135.265H32.1464V114.981H163.716V135.265Z" fill="#3F51B5"/>
<path d="M39.273 142.392H37.6284V134.717H39.273V142.392Z" fill="#3F51B5"/>
<path d="M72.1655 126.494H36.532V124.849H72.1655V126.494ZM158.782 126.494H106.703V124.849H158.782V126.494Z" fill="#64C962"/>
<path d="M154.945 173.091H39.8212V171.447H154.945V173.091ZM50.7853 179.122H25.5678V177.477H50.7853V179.122ZM164.264 179.122H143.981V177.477H164.264V179.122ZM175.229 179.122H169.746V177.477H175.229V179.122ZM27.4876 68.9318C27.3483 68.9318 27.2075 68.9532 27.071 68.9965C26.7223 69.1077 26.4378 69.3479 26.2695 69.673C26.1012 69.9981 26.0699 70.3692 26.1807 70.7178C26.2914 71.0665 26.5315 71.351 26.8566 71.5193C27.1817 71.6871 27.5534 71.7189 27.9015 71.6081C28.2507 71.4968 28.5352 71.2567 28.703 70.9317C28.8713 70.6066 28.9031 70.2354 28.7918 69.8868C28.681 69.5381 28.4409 69.2536 28.1158 69.0853C27.9217 68.9845 27.7063 68.9319 27.4876 68.9318ZM27.4832 73.3186C27.0074 73.3186 26.5359 73.2045 26.1012 72.9798C24.6248 72.2161 24.0449 70.3939 24.8085 68.9175C25.1785 68.2021 25.8046 67.6736 26.5721 67.4297C27.3401 67.1852 28.1564 67.2548 28.8713 67.6248C30.3476 68.3885 30.9276 70.2107 30.1639 71.6871C29.7945 72.4025 29.1679 72.931 28.4004 73.1749C28.1039 73.2698 27.7945 73.3182 27.4832 73.3186Z" fill="#3F51B5"/>
<path d="M25.012 107.75L0 95.0462L12.9739 69.5994L21.3143 66.0476L21.959 67.5606L14.1679 70.8784L2.21366 94.3258L24.2873 105.537L31.6481 90.9604L33.1161 91.7021L25.012 107.75Z" fill="#64C962"/>
<path d="M22.3236 67.2697L20.8627 66.5142C21.9108 64.4875 24.0346 63.0178 26.5432 62.583L26.8244 64.2035C24.8191 64.5511 23.1366 65.6974 22.3236 67.2697Z" fill="#64C962"/>
<path d="M29.5967 83.1895L16.0286 76.1714L20.9016 66.4363L22.3724 67.172L18.2258 75.456L28.9191 80.9874L33.2478 72.9989C34.6972 70.0923 33.5235 66.4972 30.6246 64.9978C30.265 64.812 29.8878 64.6618 29.5024 64.5527L29.9525 62.9705C30.4431 63.1103 30.9239 63.3006 31.3806 63.5368C35.0728 65.4468 36.5683 70.0271 34.7131 73.7461L34.6589 73.8503L29.5967 83.1895Z" fill="#64C962"/>
<path d="M28.5429 68.0711L26.9038 67.9368L27.8341 56.5631C27.9204 55.5032 28.2643 54.4803 28.8359 53.5836C29.4076 52.6868 30.1896 51.9433 31.114 51.4176C32.038 50.8912 33.0766 50.5984 34.1395 50.5648C35.2024 50.5312 36.2574 50.7577 37.2129 51.2247C39.2072 52.1983 40.5591 54.0945 40.8305 56.2967L39.1979 56.4973C38.9951 54.8499 37.9836 53.4312 36.4914 52.7026C35.0167 51.9828 33.3535 52.0349 31.9276 52.8468C30.5017 53.6581 29.607 55.0616 29.4733 56.6969L28.5429 68.0711Z" fill="#3F51B5"/>
<path d="M181.259 26.1715H179.614V21.7859H137.951V26.1715H136.306V20.1412H181.259V26.1715ZM154.744 10.1172C153.045 10.1172 151.663 11.4993 151.663 13.1976C151.663 14.8965 153.045 16.2791 154.744 16.2791C156.443 16.2791 157.825 14.8965 157.825 13.1976C157.825 11.4993 156.443 10.1172 154.744 10.1172ZM154.744 17.9237C152.138 17.9237 150.018 15.8038 150.018 13.1976C150.018 10.5925 152.138 8.47262 154.744 8.47262C157.349 8.47262 159.47 10.5925 159.47 13.1976C159.47 15.8038 157.349 17.9237 154.744 17.9237ZM162.675 17.9237C161.813 17.9237 160.97 17.6891 160.236 17.2461L161.085 15.8378C161.563 16.1267 162.113 16.2791 162.675 16.2791C164.373 16.2791 165.755 14.8965 165.755 13.1976C165.755 11.4993 164.373 10.1172 162.675 10.1172C162.057 10.1172 161.462 10.2987 160.953 10.6424L160.032 9.28013C160.814 8.75166 161.727 8.47262 162.675 8.47262C165.28 8.47262 167.4 10.5925 167.4 13.1976C167.4 15.8038 165.28 17.9237 162.675 17.9237Z" fill="#64C962"/>
<path d="M162.303 63.9979H155.253C152.074 63.9979 148.947 63.1854 146.21 61.6488L147.015 60.2147C149.507 61.6137 152.355 62.3533 155.253 62.3533H162.303C167.499 62.3533 172.317 60.008 175.523 55.9195C178.728 51.8304 179.856 46.5917 178.616 41.546L174.971 26.7197H141.788V25.0751H176.26L180.212 41.1535C181.574 46.6931 180.337 52.445 176.817 56.9342C173.298 61.423 168.008 63.9979 162.303 63.9979ZM132.468 55.2266V53.1313L131.852 53.0951C130.433 52.9608 127.952 52.3874 126.742 50.0915L128.518 49.3728C129.36 50.7598 131.337 51.4954 132.993 51.5086C135.559 51.5294 137.162 50.4972 137.176 48.8153C137.191 46.959 134.81 46.4497 133.019 46.2283C129.774 45.8462 127.296 45.3095 127.321 42.2362C127.345 39.124 130.896 38.4925 131.983 38.3719L132.468 38.3308V36.5875H134.113V38.3346L134.611 38.3916C136.545 38.6959 137.779 39.413 138.55 40.6947L136.945 41.4057C136.194 40.5258 134.655 39.8871 133.172 39.8751C130.722 39.8553 129.309 40.7215 129.297 42.2527C129.282 44.0793 131.439 44.3485 133.173 44.565C136.528 44.9965 139.305 45.6154 139.279 48.8323C139.258 51.5135 136.877 52.8627 134.527 53.0112L134.113 53.0359V55.2266H132.468Z" fill="#64C962"/>
<path d="M131.312 30.6213L131.146 28.9849C131.908 28.9076 132.683 28.883 133.449 28.9109L133.389 30.5544C132.698 30.5292 131.999 30.5517 131.312 30.6213ZM137.472 31.2726C136.812 31.0599 136.138 30.8929 135.455 30.7726L135.74 29.1532C136.497 29.2863 137.245 29.4715 137.976 29.7075L137.472 31.2726ZM127.286 31.6054L126.678 30.0775C127.39 29.7941 128.129 29.5578 128.874 29.3758L129.265 30.9738C128.591 31.1383 127.93 31.3493 127.286 31.6054ZM141.2 33.0773C140.627 32.6936 140.021 32.346 139.4 32.045L140.115 30.5649C140.806 30.8993 141.479 31.2847 142.115 31.7106L141.2 33.0773ZM123.687 33.6578L122.683 32.3548C123.292 31.8855 123.937 31.4557 124.601 31.0774L125.415 32.5061C124.813 32.8499 124.236 33.2348 123.687 33.6578ZM144.276 35.8178C143.831 35.2964 143.352 34.8057 142.841 34.3492L143.936 33.1222C144.507 33.6334 145.044 34.1829 145.541 34.7669L144.918 35.3041L144.276 35.8178ZM120.777 36.6121L119.457 35.6303C119.917 35.0134 120.418 34.4289 120.958 33.881L122.129 35.0355C121.644 35.5289 121.188 36.059 120.777 36.6121ZM146.519 39.3329C146.231 38.7024 145.899 38.0928 145.526 37.5085L146.913 36.6242C147.327 37.2731 147.695 37.9499 148.015 38.6498L146.519 39.3329ZM118.791 40.2462L117.252 39.6651C117.524 38.9457 117.845 38.246 118.214 37.571L119.657 38.3593C119.325 38.9676 119.036 39.598 118.791 40.2462ZM147.7 43.3041C147.597 42.6211 147.445 41.9391 147.248 41.2768L148.825 40.8081C149.043 41.5433 149.212 42.2998 149.326 43.058L147.7 43.3041ZM117.874 44.2887L116.235 44.1484C116.301 43.3823 116.419 42.6217 116.589 41.8717L118.193 42.2357C118.04 42.9119 117.933 43.5979 117.874 44.2887ZM149.384 47.6552L147.752 47.4497C147.83 46.8253 147.87 46.1905 147.87 45.5622L147.869 45.3753L149.514 45.355L149.515 45.5655C149.515 46.259 149.471 46.9629 149.384 47.6552ZM116.476 48.7396C116.331 47.9886 116.238 47.2189 116.197 46.4519L117.84 46.3659C117.876 47.0577 117.96 47.7518 118.091 48.4288L116.476 48.7396ZM148.189 52.0941L146.675 51.4522C146.945 50.8162 147.172 50.1556 147.352 49.4885L148.94 49.9161C148.74 50.6585 148.489 51.3862 148.189 52.0941ZM117.963 53.0924C117.616 52.4057 117.317 51.696 117.067 50.9681L118.624 50.4358C118.847 51.0892 119.119 51.7334 119.431 52.349L117.963 53.0924ZM145.823 56.0368L144.544 55.0029C144.978 54.4657 145.378 53.8939 145.733 53.3024L147.143 54.1482C146.747 54.8076 146.306 55.4387 145.823 56.0368ZM120.587 56.8679C120.438 56.7067 120.292 56.5417 120.148 56.3729C119.794 55.9562 119.456 55.5182 119.145 55.0714L120.496 54.1323C120.776 54.5358 121.081 54.9311 121.401 55.3071C121.531 55.4595 121.663 55.6087 121.797 55.7545L120.587 56.8679ZM142.471 59.1813L141.519 57.8399C141.882 57.5822 142.24 57.3043 142.582 57.0137C142.77 56.8542 142.952 56.6908 143.129 56.5247L144.254 57.7242C144.057 57.9089 143.855 58.0898 143.647 58.2664C143.269 58.5888 142.876 58.894 142.471 59.1813ZM138.386 61.2969L137.839 59.7454C138.491 59.5157 139.133 59.2383 139.745 58.9209L140.501 60.3814C139.818 60.7351 139.111 61.0411 138.386 61.2969ZM39.4815 23.1268L35.4845 20.1845L36.4592 18.8601L40.4562 21.8023L39.4815 23.1268ZM45.5808 14.8401L41.5839 11.8984L42.5591 10.5739L46.5556 13.5156L45.5808 14.8401Z" fill="#3F51B5"/>
<path d="M30.0521 19.2543L33.2854 21.6346L43.1373 8.25061L39.904 5.87029L30.0521 19.2543ZM33.6347 23.9337L27.7529 19.604L39.5548 3.57111L45.4365 7.90086L33.6347 23.9337Z" fill="#3F51B5"/>
<path d="M30.9157 16.3953L22.2957 10.1951C20.9652 9.21599 20.6813 7.34715 21.6549 6.02378L25.1968 1.21216C26.1705 -0.11067 28.0387 -0.395206 29.3627 0.578959L37.9756 6.77371L37.0151 8.10916L28.3951 1.90893C27.7953 1.46652 26.9577 1.59426 26.5213 2.18742L22.9793 6.99848C22.5435 7.59164 22.6701 8.42931 23.2633 8.86568L31.8757 15.0604L30.9157 16.3953Z" fill="#3F51B5"/>
<path d="M59.9674 16.3678C54.681 16.3678 49.5361 19.1198 46.7271 24.0268C44.7064 27.5568 44.1807 31.6617 45.248 35.5869C46.3148 39.5115 48.8465 42.786 52.3764 44.8067C55.9063 46.8279 60.0124 47.3525 63.9364 46.2857C67.8611 45.2189 71.1355 42.6873 73.1562 39.1574C77.3275 31.8712 74.7937 22.5489 67.5069 18.3775C65.1277 17.0152 62.5303 16.3678 59.9674 16.3678ZM59.9148 48.4714C57.012 48.4714 54.1465 47.7149 51.5595 46.2342C47.6481 43.9948 44.8434 40.3673 43.661 36.0183C42.4785 31.6694 43.0607 27.1204 45.2995 23.2095C49.922 15.136 60.2508 12.3281 68.3237 16.95C76.3972 21.572 79.2057 31.9007 74.5837 39.9747C72.3443 43.8857 68.7168 46.6903 64.3679 47.8728C62.8954 48.273 61.4004 48.4709 59.9148 48.4714ZM51.008 53.0572C50.1101 52.6816 49.2362 52.2508 48.3914 51.7673C37.2667 45.3982 33.398 31.1667 39.767 20.0419C42.8518 14.653 47.8509 10.7882 53.8428 9.1589C59.8358 7.53017 66.1035 8.3322 71.4918 11.417C82.6166 17.786 86.4853 32.0181 80.1168 43.1423C78.5966 45.7978 76.611 48.0882 74.2142 49.95L73.205 48.6512C75.4313 46.9216 77.2765 44.7935 78.6893 42.3255C84.6077 31.9879 81.012 18.7624 70.675 12.8445C65.6671 9.97737 59.843 9.23234 54.2743 10.7459C48.7061 12.2601 44.0611 15.8514 41.194 20.8593C35.2756 31.1968 38.8713 44.4218 49.2083 50.3397C49.994 50.7896 50.8069 51.1901 51.6423 51.5392L51.008 53.0572Z" fill="#64C962"/>
<path d="M59.9416 36.1758L64.2906 38.4624L63.46 33.6195L66.9784 30.1899L62.1164 29.4833L59.9416 25.0768L57.7669 29.4833L52.9043 30.1899L56.4232 33.6195L55.5927 38.4624L59.9416 36.1758ZM53.4081 41.4687L54.6558 34.1935L49.37 29.0414L56.6749 27.9801L59.9416 21.361L63.2084 27.9801L70.5127 29.0414L65.2275 34.1935L66.4752 41.4687L59.9416 38.0337L53.4081 41.4687Z" fill="#3F51B5"/>
</svg>
