<svg width="184" height="194" viewBox="0 0 184 194" fill="none" xmlns="http://www.w3.org/2000/svg">
<path d="M88.0667 67.7531H64.683V48.5664H88.0667V67.7531ZM88.0667 155.892H64.683V92.336H88.0667V155.892ZM136.633 133.064L116.247 143.339V67.7531H136.633V133.064Z" fill="#3748A6"/>
<path d="M104.753 167.883H8.32207V154.693H109.22V156.491H10.1208V166.085H104.753V167.883ZM184 167.883H164.813V166.085H182.201V155.892H171.409V154.093H184V167.883ZM36.5025 179.756C33.1988 179.756 30.5067 177.224 30.5067 174.112V169.682H32.3054V174.112C32.3054 176.233 34.1881 177.958 36.5025 177.958C38.8169 177.958 40.6996 176.233 40.6996 174.112V169.682H42.4983V174.112C42.4983 177.224 39.8062 179.756 36.5025 179.756Z" fill="#3F51B5"/>
<path d="M24.8287 151.142L40.7237 154.315L58.7112 64.2081L42.8162 61.0351L24.8287 151.142ZM42.1327 156.431L22.7122 152.554L41.4012 58.9192L60.8217 62.7967L42.1327 156.431ZM117.446 142.701H115.648V66.5537H136.633V135.506H134.834V68.3525H117.446V142.701Z" fill="#3F51B5"/>
<path d="M164.814 152.894H163.015V79.7447H136.633V134.906H134.834V77.946H164.814V152.894ZM61.6851 154.093H88.0668V44.3693H61.6851V154.093ZM89.8656 155.892H59.8864V42.5705H89.8656V155.892Z" fill="#3F51B5"/>
<path d="M89.8655 155.292H88.0668V42.5704H117.446V61.1575H115.648V44.3692H89.8655V155.292ZM136.933 135.506C121.56 135.506 109.052 148.013 109.052 163.387C109.052 178.76 121.56 191.267 136.933 191.267C152.306 191.267 164.813 178.76 164.813 163.387C164.813 148.013 152.306 135.506 136.933 135.506ZM136.933 193.066C120.57 193.066 107.253 179.752 107.253 163.387C107.253 147.021 120.57 133.707 136.933 133.707C153.295 133.707 166.612 147.021 166.612 163.387C166.612 179.752 153.295 193.066 136.933 193.066Z" fill="#3F51B5"/>
<path d="M88.9662 68.3525H59.2868V66.5537H88.9662V68.3525ZM88.9662 88.7383H61.0855V86.9395H88.9662V88.7383ZM103.056 60.5579C100.742 60.5579 98.8593 62.4406 98.8593 64.755C98.8593 67.0693 100.742 68.952 103.056 68.952C105.371 68.952 107.253 67.0693 107.253 64.755C107.253 62.4406 105.371 60.5579 103.056 60.5579ZM103.056 70.7508C99.7527 70.7508 97.0605 68.0611 97.0605 64.755C97.0605 61.4489 99.7527 58.7591 103.056 58.7591C106.36 58.7591 109.052 61.4489 109.052 64.755C109.052 68.0611 106.36 70.7508 103.056 70.7508ZM103.056 136.105C100.742 136.105 98.8593 137.988 98.8593 140.302C98.8593 142.617 100.742 144.5 103.056 144.5C105.371 144.5 107.253 142.617 107.253 140.302C107.253 137.988 105.371 136.105 103.056 136.105ZM103.056 146.298C99.7527 146.298 97.0605 143.609 97.0605 140.302C97.0605 136.996 99.7527 134.307 103.056 134.307C106.36 134.307 109.052 136.996 109.052 140.302C109.052 143.609 106.36 146.298 103.056 146.298ZM149.824 97.1325C145.855 97.1325 142.629 101.033 142.629 105.826C142.629 110.62 145.855 114.52 149.824 114.52C153.793 114.52 157.019 110.62 157.019 105.826C157.019 101.033 153.793 97.1325 149.824 97.1325ZM149.824 116.319C144.865 116.319 140.83 111.612 140.83 105.826C140.83 100.041 144.865 95.3337 149.824 95.3337C154.782 95.3337 158.818 100.041 158.818 105.826C158.818 111.612 154.782 116.319 149.824 116.319ZM163.614 88.7383H139.031V86.9395H163.614V88.7383ZM163.614 124.114H139.031V122.315H163.614V124.114ZM103.056 122.915H101.258V78.5454H103.056V122.915ZM79.6726 100.13H67.6809V98.3316H79.6726V100.13ZM79.6726 109.124H67.6809V107.325H79.6726V109.124ZM51.5581 90.0592L36.6884 87.1338L37.0362 85.3686L51.9059 88.294L51.5581 90.0592ZM48.3024 107.701L33.4147 104.772L33.7565 103.008L48.6501 105.937L48.3024 107.701ZM112.65 179.875H50.293V178.076H112.65V179.875Z" fill="#3F51B5"/>
<path d="M146.274 4.61797C136.795 4.61797 129.084 12.3532 129.084 21.8608C129.084 31.3684 136.795 39.1036 146.274 39.1036C155.754 39.1036 163.47 31.3684 163.47 21.8608C163.47 12.3532 155.754 4.61797 146.274 4.61797ZM146.274 40.9023C135.806 40.9023 127.285 32.3601 127.285 21.8608C127.285 11.3615 135.806 2.81921 146.274 2.81921C156.749 2.81921 165.269 11.3615 165.269 21.8608C165.269 32.3601 156.749 40.9023 146.274 40.9023Z" fill="#64C962"/>
<path d="M146.052 13.71C141.753 13.71 138.252 17.259 138.252 21.6215C138.252 25.9841 141.753 29.5336 146.052 29.5336C150.357 29.5336 153.859 25.9841 153.859 21.6215C153.859 17.259 150.357 13.71 146.052 13.71ZM146.052 31.3324C140.758 31.3324 136.453 26.9758 136.453 21.6215C136.453 16.2673 140.758 11.9113 146.052 11.9113C151.347 11.9113 155.658 16.2673 155.658 21.6215C155.658 26.9758 151.347 31.3324 146.052 31.3324Z" fill="#FF7F4D"/>
<path d="M36.5025 60.5579H24.5108V58.7591H36.5025V60.5579ZM26.5134 30.9786C25.7639 30.9786 25.0624 31.2658 24.5288 31.7976C23.8932 32.4374 23.6054 33.3242 23.7493 34.2319C23.9532 35.5672 25.2003 36.5745 26.6393 36.5745H29.3075V33.9058C29.3075 32.465 28.3001 31.2214 26.9631 31.014C26.8132 30.99 26.6633 30.9786 26.5134 30.9786ZM31.1062 38.3733H26.6393C24.3189 38.3733 22.3103 36.7118 21.9686 34.5083C21.7407 33.0274 22.2084 31.5758 23.2577 30.5259C24.3069 29.476 25.7579 29.0054 27.2389 29.2368C29.4454 29.5792 31.1062 31.5866 31.1062 33.9058V38.3733ZM35.9029 36.5745H38.571C40.01 36.5745 41.2572 35.5672 41.4611 34.2319C41.605 33.3248 41.3172 32.4374 40.6816 31.7982C40.04 31.1585 39.1526 30.8725 38.2472 31.014C36.9102 31.2214 35.9029 32.465 35.9029 33.9058V36.5745ZM38.571 38.3733H34.1041V33.9058C34.1041 31.5866 35.765 29.5792 37.9715 29.2368C39.4524 29.0059 40.9034 29.476 41.9527 30.5259C43.0019 31.5758 43.4696 33.0274 43.2418 34.5083C42.9 36.7118 40.8914 38.3733 38.571 38.3733Z" fill="#64C962"/>
<path d="M35.903 53.363H34.1042V37.7738H35.903V53.363ZM31.1063 53.9626H29.3076V37.1742H31.1063V53.9626ZM32.3235 71.0945C29.5594 71.0945 27.311 68.8442 27.311 66.0777H29.1097C29.1097 67.8525 30.5487 69.2957 32.3235 69.2957V71.0945Z" fill="#64C962"/>
<path d="M36.5025 66.5537H28.6899C25.722 66.5537 23.3117 64.1422 23.3117 61.1778V52.7633H25.1104V61.1778C25.1104 63.1505 26.7173 64.755 28.6899 64.755H36.5025V66.5537Z" fill="#64C962"/>
<path d="M32.3056 14.9895C21.7229 14.9895 13.1189 23.5965 13.1189 34.1762C13.1189 44.7558 21.7229 53.3629 32.3056 53.3629C42.8822 53.3629 51.4922 44.7558 51.4922 34.1762C51.4922 23.5965 42.8822 14.9895 32.3056 14.9895ZM32.3056 55.1616C20.7336 55.1616 11.3201 45.7476 11.3201 34.1762C11.3201 22.6048 20.7336 13.1908 32.3056 13.1908C43.8775 13.1908 53.291 22.6048 53.291 34.1762C53.291 45.7476 43.8775 55.1616 32.3056 55.1616ZM32.3056 5.39618H30.5068V-6.86646e-05H32.3056V5.39618ZM14.6838 10.7073L11.3681 6.53419L12.7771 5.41536L16.0928 9.58905L14.6838 10.7073ZM5.30028 23.4256L0 22.8189L0.209854 21.0315L5.50417 21.6383L5.30028 23.4256ZM57.494 22.8189L57.2902 21.0315L62.5845 20.4247L62.7883 22.2121L57.494 22.8189ZM47.7808 10.8278L46.3897 9.68619L49.9093 5.40397L51.3004 6.54558L47.7808 10.8278Z" fill="#64C962"/>
<path d="M111.75 11.8351L111.522 10.0501C112.326 9.94941 113.141 9.86367 113.945 9.79532L114.095 11.5875C113.315 11.654 112.524 11.7368 111.75 11.8351ZM107.098 12.6194L106.72 10.8596C107.511 10.6923 108.315 10.5394 109.118 10.4051L109.412 12.1787C108.638 12.3094 107.859 12.4575 107.098 12.6194ZM102.529 13.7861L102.007 12.0635C102.781 11.8321 103.566 11.6127 104.351 11.413L104.795 13.1554C104.04 13.3496 103.272 13.5619 102.529 13.7861ZM98.0738 15.3307L97.4142 13.6572C98.1637 13.3605 98.9312 13.0763 99.6927 12.8124L100.286 14.5117C99.5428 14.7677 98.7993 15.0429 98.0738 15.3307ZM93.7628 17.2422L92.9654 15.6299C93.6909 15.2707 94.4343 14.923 95.1718 14.5968L95.8973 16.2408C95.1838 16.5574 94.4643 16.8938 93.7628 17.2422ZM89.6257 19.508L88.6963 17.9677C89.3918 17.5491 90.0994 17.1408 90.8069 16.7541L91.6702 18.3316C90.9867 18.7063 90.2972 19.1021 89.6257 19.508ZM85.6924 22.1108L84.6371 20.6532C85.2967 20.1777 85.9682 19.7112 86.6398 19.2682L87.6351 20.7683C86.9815 21.1982 86.3279 21.6497 85.6924 22.1108ZM81.987 25.0319L80.8178 23.6673C81.4294 23.1397 82.0649 22.6192 82.6945 22.1204L83.8097 23.533C83.1981 24.0163 82.5806 24.5205 81.987 25.0319ZM78.5334 28.2511L77.2563 26.9872C77.8199 26.4122 78.4075 25.8414 79.0011 25.2904L80.2302 26.6059C79.6546 27.1401 79.085 27.6935 78.5334 28.2511ZM75.3616 31.7443L73.9825 30.5913C74.4982 29.9695 75.0378 29.3519 75.5834 28.7554L76.9145 29.9653C76.3869 30.5433 75.8652 31.1423 75.3616 31.7443ZM72.4836 35.4887L71.0146 34.4532C71.4823 33.7895 71.968 33.1293 72.4596 32.4908L73.8866 33.5874C73.4069 34.2056 72.9393 34.8453 72.4836 35.4887ZM69.9294 39.4585L68.3764 38.5484C68.7841 37.8504 69.2158 37.1519 69.6535 36.4732L71.1645 37.4475C70.7448 38.1053 70.3251 38.7816 69.9294 39.4585ZM169.574 42.5242C169.214 41.8251 168.843 41.1242 168.459 40.4412L170.03 39.5622C170.426 40.2668 170.809 40.9905 171.175 41.7118L169.574 42.5242ZM171.523 46.8196C171.229 46.0953 170.917 45.3662 170.593 44.6515L172.23 43.9074C172.566 44.6443 172.89 45.3974 173.19 46.1445L171.523 46.8196ZM173.112 51.2637C172.878 50.5154 172.626 49.7624 172.362 49.0249L174.059 48.4205C174.329 49.1814 174.587 49.9584 174.827 50.7301L173.112 51.2637ZM174.317 55.8242C174.149 55.0633 173.963 54.2922 173.765 53.5313L175.498 53.0703C175.708 53.8551 175.9 54.6514 176.074 55.4368L174.317 55.8242ZM175.144 60.4697C175.042 59.6951 174.916 58.9102 174.779 58.1386L176.553 57.8238C176.691 58.6206 176.817 59.4295 176.925 60.2287L175.144 60.4697ZM175.582 65.1699C175.576 64.9576 175.564 64.7448 175.546 64.5319C175.51 63.9569 175.468 63.3843 175.414 62.8141L177.207 62.6468C177.261 63.2344 177.303 63.825 177.345 64.418L177.381 65.0745L175.582 65.1699ZM177.435 69.9456L175.642 69.891C175.654 69.3268 175.666 68.7602 175.666 68.1924C175.666 67.9723 175.666 67.7511 175.66 67.5298L177.459 67.5088C177.465 67.7373 177.465 67.9651 177.465 68.1924C177.465 68.7787 177.453 69.3628 177.435 69.9456ZM177.093 74.8046L175.3 74.6013C175.39 73.8213 175.462 73.0298 175.522 72.2503L177.315 72.3781C177.255 73.1827 177.183 73.9993 177.093 74.8046ZM176.337 79.618L174.575 79.2661C174.731 78.4986 174.868 77.7162 174.988 76.9415L176.763 77.2191C176.643 78.0183 176.499 78.8254 176.337 79.618ZM175.186 84.3517L173.459 83.8535C173.675 83.1034 173.879 82.3353 174.065 81.5715L175.816 81.9966C175.624 82.785 175.408 83.5777 175.186 84.3517ZM173.645 88.9715L171.961 88.3306C172.242 87.5973 172.512 86.8496 172.758 86.1079L174.467 86.6781C174.209 87.4432 173.933 88.2149 173.645 88.9715ZM171.721 93.4468L170.096 92.6674C170.438 91.9629 170.767 91.2404 171.073 90.5191L172.728 91.2296C172.41 91.9737 172.068 92.7195 171.721 93.4468ZM169.43 97.7452L167.877 96.8345C168.273 96.1581 168.663 95.465 169.035 94.7743L170.617 95.6197C170.24 96.3326 169.838 97.0473 169.43 97.7452Z" fill="#3F51B5"/>
</svg>
