<svg width="184" height="178" viewBox="0 0 184 178" fill="none" xmlns="http://www.w3.org/2000/svg">
<path d="M137.04 62.1486C134.24 62.1486 132.078 61.1193 131.988 61.0757C129.037 59.4982 125.742 58.6724 122.429 58.6724H115.527V56.996H122.429C126.017 56.996 129.585 57.8901 132.748 59.5821C132.748 59.5821 134.648 60.4722 137.04 60.4722C139.437 60.4722 141.342 59.5748 141.365 59.5658C144.494 57.89 148.065 56.996 151.652 56.996H175.534C176.339 56.996 176.993 56.3411 176.993 55.5365V9.84126C176.993 9.03661 176.339 8.38173 175.534 8.38173H172.523V6.70538H175.534C177.261 6.70538 178.669 8.11238 178.669 9.84126V55.5365C178.669 57.2653 177.261 58.6724 175.534 58.6724H151.652C148.338 58.6724 145.042 59.4982 142.119 61.06C142.002 61.1193 139.839 62.1486 137.04 62.1486ZM97.0866 21.7926H95.4103V9.84126C95.4103 8.11238 96.8167 6.70538 98.5462 6.70538H101.557V8.38173H98.5462C97.7415 8.38173 97.0866 9.03661 97.0866 9.84126V21.7926Z" fill="#64C962"/>
<path d="M137.878 54.761H136.202V5.09116C135.565 4.33735 132.933 1.67643 127.533 1.67643H104.134C103.329 1.67643 102.674 2.3313 102.674 3.13595V21.7927H100.998V3.13595C100.998 1.40707 102.405 7.24792e-05 104.134 7.24792e-05H127.533C134.609 7.24792e-05 137.604 4.14289 137.727 4.31947L137.878 4.53627V54.761Z" fill="#64C962"/>
<path d="M130.055 30.7332H109.939V29.0569H130.055V30.7332ZM130.055 37.4386H115.527V35.7623H130.055V37.4386ZM130.055 9.49939H109.939V7.82303H130.055V9.49939ZM127.82 24.0278H109.939V22.3514H127.82V24.0278ZM121.114 44.144H115.527V42.4677H121.114V44.144ZM130.055 44.144H126.702V42.4677H130.055V44.144ZM130.055 17.3224H123.35V15.646H130.055V17.3224ZM117.762 17.3224H109.939V15.646H117.762V17.3224Z" fill="#64C962"/>
<path d="M137.04 56.8134L136.531 56.4272C133.821 54.3653 129.817 53.0846 126.083 53.0846H115.527V51.4082H126.083C130.002 51.4082 134.045 52.6392 137.04 54.7235C140.035 52.6392 144.075 51.4082 147.998 51.4082H169.902C170.729 51.4082 171.405 50.7338 171.405 49.9045V3.13591C171.405 2.33126 170.751 1.67638 169.947 1.67638H146.545C141.739 1.67638 138.694 4.17805 137.878 4.93856V46.3792H136.202V4.26297L136.419 4.02271C136.57 3.85842 140.18 2.67029e-05 146.545 2.67029e-05H169.947C171.673 2.67029e-05 173.081 1.40702 173.081 3.13591V49.9045C173.081 51.658 171.656 53.0846 169.902 53.0846H147.998C144.259 53.0846 140.258 54.3653 137.548 56.4272L137.04 56.8134Z" fill="#64C962"/>
<path d="M161.906 30.7332H143.466V29.0569H161.906V30.7332ZM164.141 37.4386H143.466V35.7623H164.141V37.4386ZM164.141 9.49939H143.466V7.82303H164.141V9.49939ZM164.141 24.0278H143.466V22.3514H164.141V24.0278ZM157.435 44.144H143.466V42.4677H157.435V44.144ZM157.435 17.3224H143.466V15.646H157.435V17.3224Z" fill="#64C962"/>
<path d="M121.05 171.582L120.571 169.976L130.519 167.013L120.843 161.281L126.146 156.78L123.084 152.76L124.417 151.745L128.442 157.028L123.721 161.037L134.671 167.525L121.05 171.582Z" fill="#3F51B5"/>
<path d="M12.1514 8.38174C10.9187 8.38174 9.91622 9.3842 9.91622 10.6169C9.91622 11.8496 10.9187 12.852 12.1514 12.852C13.3835 12.852 14.3865 11.8496 14.3865 10.6169C14.3865 9.3842 13.3835 8.38174 12.1514 8.38174ZM12.1514 14.5284C9.99445 14.5284 8.23987 12.7738 8.23987 10.6169C8.23987 8.45997 9.99445 6.70538 12.1514 6.70538C14.3077 6.70538 16.0629 8.45997 16.0629 10.6169C16.0629 12.7738 14.3077 14.5284 12.1514 14.5284ZM174.702 89.0541L176.959 94.0786L180.675 89.8067L174.702 89.0541ZM176.507 97.157L171.947 87.0178L184 88.5361L176.507 97.157Z" fill="#64C962"/>
<path d="M104.351 117.345H41.2082V35.7622H104.351V117.345ZM63.7635 147.519H45.4879C34.7095 147.519 29.7978 139.887 30.912 129.549C31.1545 127.298 31.8412 125.529 32.3833 124.395C31.9815 128.054 31.4675 135.245 36.0741 138.703C40.2588 141.846 50.8472 140.814 50.8472 140.814L83.0841 140.742C83.0841 140.742 83.0841 140.814 83.3964 142.534C80.1834 149.883 64.8112 157.089 64.8112 157.089C69.8906 155.429 67.5968 147.519 63.7635 147.519Z" fill="#3748A6"/>
<path d="M101.731 141.931H42.1514C36.0852 141.931 31.15 136.996 31.15 130.93V35.5879C31.15 29.5218 36.0852 24.5866 42.1514 24.5866H101.731C107.797 24.5866 112.733 29.5218 112.733 35.5879V67.613H111.056V35.5879C111.056 30.446 106.873 26.2629 101.731 26.2629H42.1514C37.0094 26.2629 32.8264 30.446 32.8264 35.5879V130.93C32.8264 136.072 37.0094 140.255 42.1514 140.255H101.731C106.873 140.255 111.056 136.072 111.056 130.93V113.433H112.733V130.93C112.733 136.996 107.797 141.931 101.731 141.931Z" fill="#3F51B5"/>
<path d="M84.2837 129.543C84.2837 131.225 82.9209 132.588 81.2389 132.588C79.5575 132.588 78.1947 131.225 78.1947 129.543C78.1947 127.862 79.5575 126.499 81.2389 126.499C82.9209 126.499 84.2837 127.862 84.2837 129.543ZM75.6237 129.543C75.6237 131.225 74.2608 132.588 72.5789 132.588C70.8975 132.588 69.5346 131.225 69.5346 129.543C69.5346 127.862 70.8975 126.499 72.5789 126.499C74.2608 126.499 75.6237 127.862 75.6237 129.543ZM66.9631 129.543C66.9631 131.225 65.6002 132.588 63.9188 132.588C62.2374 132.588 60.874 131.225 60.874 129.543C60.874 127.862 62.2374 126.499 63.9188 126.499C65.6002 126.499 66.9631 127.862 66.9631 129.543Z" fill="#FF7F4D"/>
<path d="M55.2253 162.195L54.2435 160.836C56.2401 159.394 58.9496 158.199 62.0877 156.813C69.2145 153.667 78.084 149.753 83.5652 140.618L85.0024 141.48C79.248 151.071 70.1085 155.105 62.7644 158.347C59.7134 159.694 57.0782 160.857 55.2253 162.195ZM15.6734 130.838L14.0283 130.516C14.9699 125.705 11.5529 114.978 9.71729 109.216C9.38202 108.162 9.09031 107.246 8.87294 106.522C7.19268 100.92 9.91454 94.1675 13.0666 86.3484C16.3059 78.3131 19.9771 69.2055 20.0816 58.8529C20.128 54.225 23.0672 51.6362 25.9472 51.4713C28.8825 51.3026 32.1419 53.5327 32.813 58.8914L31.15 59.0998C30.6131 54.8151 28.2086 53.0214 26.0427 53.1449C24.0054 53.2616 21.7954 55.1028 21.758 58.8696C21.6507 69.5391 17.9163 78.802 14.6217 86.9748C11.5875 94.5017 8.96682 101.002 10.4783 106.04C10.6935 106.757 10.9824 107.664 11.3148 108.707C13.3281 115.027 16.6976 125.605 15.6734 130.838ZM114.501 99.9202C114.462 99.9202 114.423 99.9207 114.385 99.9213L113.166 99.9487C110.326 100.012 108.067 102.374 108.131 105.213C108.195 108.052 110.562 110.304 113.395 110.247L114.615 110.22C117.454 110.157 119.712 107.795 119.649 104.956C119.618 103.587 119.052 102.308 118.055 101.353C117.085 100.427 115.827 99.9202 114.501 99.9202ZM113.278 111.925C109.584 111.925 106.538 108.962 106.455 105.25C106.371 101.487 109.365 98.3573 113.128 98.2729L114.347 98.2455C116.16 98.2002 117.891 98.8786 119.213 100.142C120.534 101.406 121.284 103.102 121.324 104.919C121.408 108.682 118.415 111.812 114.652 111.896L113.433 111.923C113.381 111.924 113.329 111.925 113.278 111.925Z" fill="#3F51B5"/>
<path d="M114.465 87.9454C114.426 87.9454 114.388 87.9454 114.349 87.9465L113.129 87.9733C110.29 88.037 108.032 90.3984 108.095 93.2376C108.158 96.0768 110.527 98.3315 113.359 98.2717L114.578 98.2444C115.947 98.2136 117.226 97.6476 118.18 96.6502C119.135 95.6527 119.643 94.3491 119.612 92.9806C119.582 91.6116 119.016 90.3325 118.018 89.3787C117.049 88.4517 115.791 87.9454 114.465 87.9454ZM113.242 99.9492C109.548 99.9492 106.502 96.9871 106.419 93.2751C106.335 89.5117 109.329 86.3819 113.091 86.2975L114.311 86.2707C116.127 86.2243 117.856 86.9038 119.177 88.1667C120.498 89.4306 121.248 91.1265 121.288 92.9432C121.329 94.7598 120.656 96.4875 119.392 97.8085C118.128 99.13 116.432 99.8799 114.616 99.9202L113.397 99.9475C113.345 99.9486 113.294 99.9492 113.242 99.9492Z" fill="#3F51B5"/>
<path d="M114.429 75.97C114.39 75.97 114.351 75.97 114.312 75.9712L113.093 75.998C110.254 76.0617 107.996 78.4231 108.059 81.2623C108.123 84.1015 110.487 86.3528 113.323 86.2964L114.542 86.2696C115.911 86.2388 117.191 85.6728 118.144 84.6748C119.098 83.6774 119.607 82.3743 119.577 81.0053C119.546 79.6363 118.98 78.3572 117.982 77.4034C117.013 76.4763 115.755 75.97 114.429 75.97ZM113.206 87.9744C109.512 87.9744 106.466 85.0118 106.383 81.2998C106.299 77.5363 109.292 74.4066 113.056 74.3222L114.275 74.2954C116.098 74.2512 117.819 74.9285 119.141 76.1919C120.462 77.4553 121.212 79.1512 121.252 80.9678C121.293 82.7844 120.619 84.5122 119.356 85.8332C118.092 87.1547 116.396 87.9046 114.58 87.9454L113.36 87.9722C113.309 87.9739 113.257 87.9744 113.206 87.9744ZM46.1299 177.553L44.9905 176.323L51.33 170.449L14.648 130.861L1.1131 142.886L0 141.633L14.762 128.518L53.6992 170.539L46.1299 177.553Z" fill="#3F51B5"/>
<path d="M16.8088 144.375C17.9789 146.314 17.3553 148.835 15.4158 150.005C13.4768 151.175 10.9561 150.551 9.78604 148.612C8.61594 146.673 9.23953 144.152 11.1791 142.982C13.1181 141.812 15.6387 142.436 16.8088 144.375Z" fill="#64C962"/>
<path d="M24.4446 41.9089H22.7682V34.8458C22.7682 23.6427 31.8826 14.5284 43.0851 14.5284H45.6784V16.2048H43.0851C32.8068 16.2048 24.4446 24.5669 24.4446 34.8458V41.9089ZM101.074 149.9V148.224C110.749 148.224 118.621 140.352 118.621 130.677H120.297C120.297 141.276 111.674 149.9 101.074 149.9ZM51.2663 46.3791H49.0311V44.7028H51.2663V46.3791ZM55.7366 46.3791H53.5014V44.7028H55.7366V46.3791ZM60.2068 46.3791H57.9717V44.7028H60.2068V46.3791ZM64.6771 46.3791H62.442V44.7028H64.6771V46.3791ZM69.1474 46.3791H66.9122V44.7028H69.1474V46.3791ZM73.6177 46.3791H71.3825V44.7028H73.6177V46.3791ZM78.0879 46.3791H75.8528V44.7028H78.0879V46.3791ZM82.5582 46.3791H80.3231V44.7028H82.5582V46.3791ZM87.0285 46.3791H84.7934V44.7028H87.0285V46.3791ZM91.4988 46.3791H89.2636V44.7028H91.4988V46.3791ZM51.2663 55.8785H49.0311V54.2021H51.2663V55.8785ZM55.7366 55.8785H53.5014V54.2021H55.7366V55.8785ZM60.2068 55.8785H57.9717V54.2021H60.2068V55.8785ZM64.6771 55.8785H62.442V54.2021H64.6771V55.8785ZM69.1474 55.8785H66.9122V54.2021H69.1474V55.8785ZM73.6177 55.8785H71.3825V54.2021H73.6177V55.8785Z" fill="#3F51B5"/>
<path d="M89.2637 67.613H49.0312V65.9367H89.2637V67.613ZM89.2637 77.6711H49.0312V75.9948H89.2637V77.6711Z" fill="white"/>
<path d="M51.2663 88.8468H49.0312V87.1704H51.2663V88.8468ZM55.7366 88.8468H53.5015V87.1704H55.7366V88.8468ZM60.2069 88.8468H57.9717V87.1704H60.2069V88.8468ZM64.6772 88.8468H62.442V87.1704H64.6772V88.8468ZM69.1474 88.8468H66.9123V87.1704H69.1474V88.8468ZM73.6177 88.8468H71.3826V87.1704H73.6177V88.8468ZM78.088 88.8468H75.8529V87.1704H78.088V88.8468ZM82.5583 88.8468H80.3231V87.1704H82.5583V88.8468ZM87.0286 88.8468H84.7934V87.1704H87.0286V88.8468ZM91.4988 88.8468H89.2637V87.1704H91.4988V88.8468ZM95.9691 88.8468H93.734V87.1704H95.9691V88.8468Z" fill="#3F51B5"/>
<path d="M87.5873 98.9049H49.0312V97.2286H87.5873V98.9049ZM93.734 110.639H49.0312V108.963H93.734V110.639Z" fill="white"/>
<path d="M54.619 16.2046H50.1487V14.5282H54.619V16.2046ZM96.5279 149.754H90.94V148.078H96.5279V149.754ZM159.201 68.1313L157.525 68.0196C157.575 67.2909 157.614 66.5505 157.631 65.8196L159.307 65.8677C159.285 66.6204 159.251 67.382 159.201 68.1313ZM158.721 72.6402L157.061 72.3977C157.167 71.6779 157.262 70.9426 157.335 70.2133L159.006 70.3899C158.927 71.1415 158.832 71.8981 158.721 72.6402ZM157.894 77.0976L156.256 76.726C156.418 76.0186 156.569 75.2927 156.703 74.5702L158.352 74.8764C158.212 75.6207 158.056 76.3678 157.894 77.0976ZM156.715 81.4852L155.116 80.9873C155.329 80.2894 155.536 79.5763 155.726 78.8684L157.346 79.3031C157.15 80.0318 156.938 80.766 156.715 81.4852ZM155.2 85.766L153.641 85.1435C153.909 84.468 154.172 83.7739 154.418 83.0799L155.999 83.6404C155.742 84.3551 155.474 85.0698 155.2 85.766ZM153.351 89.9122L151.848 89.1707C152.172 88.5119 152.485 87.8402 152.781 87.1753L154.312 87.857C154.01 88.5426 153.686 89.2338 153.351 89.9122ZM151.183 93.9002L149.747 93.0436C150.115 92.4144 150.484 91.7696 150.831 91.1281L152.306 91.9277C151.948 92.5888 151.568 93.2526 151.183 93.9002ZM148.718 97.7061L147.344 96.7406C147.768 96.1432 148.182 95.5291 148.579 94.9156L149.987 95.8275C149.579 96.4595 149.149 97.092 148.718 97.7061ZM145.958 101.309L144.667 100.239C145.137 99.6753 145.6 99.0958 146.042 98.5158L147.372 99.5345C146.919 100.131 146.439 100.728 145.958 101.309ZM142.935 104.686L141.734 103.52C142.236 102.996 142.745 102.454 143.231 101.908L144.483 103.026C143.98 103.588 143.46 104.147 142.935 104.686ZM139.66 107.818L138.549 106.563C139.096 106.078 139.638 105.577 140.169 105.072L141.326 106.284C140.784 106.803 140.219 107.319 139.66 107.818ZM136.151 110.688L135.14 109.35C135.721 108.91 136.302 108.453 136.872 107.989L137.934 109.287C137.347 109.764 136.749 110.235 136.151 110.688ZM132.43 113.276L131.525 111.864C132.145 111.469 132.759 111.058 133.357 110.642L134.313 112.018C133.698 112.446 133.067 112.869 132.43 113.276ZM128.523 115.567L127.732 114.089C128.379 113.743 129.019 113.385 129.652 113.013L130.496 114.46C129.85 114.84 129.185 115.212 128.523 115.567ZM124.448 117.547L123.775 116.012C124.447 115.718 125.113 115.41 125.773 115.089L126.506 116.597C125.831 116.925 125.138 117.245 124.448 117.547ZM87.0559 9.3343L86.6419 7.70935C87.3711 7.52383 88.1143 7.35007 88.8496 7.19305L89.1994 8.83252C88.4817 8.98564 87.7671 9.15292 87.0559 9.3343ZM82.836 10.5877L82.2956 9.0007C83.0103 8.75763 83.7373 8.52574 84.457 8.31229L84.9336 9.91937C84.2301 10.1283 83.5307 10.3511 82.836 10.5877ZM78.7272 12.1679L78.0645 10.6285C78.7541 10.3317 79.4604 10.044 80.1644 9.77296L80.7662 11.3376C80.0828 11.6007 79.3966 11.8801 78.7272 12.1679ZM74.7537 14.0655L73.9731 12.582C74.6358 12.2327 75.3181 11.8908 75.9993 11.5655L76.7223 13.0776C76.0601 13.3939 75.398 13.7263 74.7537 14.0655ZM70.9406 16.2671L70.0465 14.849C70.683 14.4472 71.3362 14.0533 71.9877 13.6772L72.8259 15.1289C72.1934 15.4944 71.5586 15.8771 70.9406 16.2671ZM67.3095 18.7582L66.3082 17.4138C66.9128 16.9634 67.5331 16.5197 68.1522 16.0945L69.101 17.4769C68.4992 17.8899 67.8968 18.3207 67.3095 18.7582ZM63.882 21.5237L62.7795 20.2608C63.3489 19.7636 63.9279 19.2776 64.5162 18.8029L65.569 20.1077C64.9984 20.5681 64.4307 21.0442 63.882 21.5237Z" fill="#3F51B5"/>
<path d="M153.803 117.595L157.614 125.313L166.13 126.55L159.967 132.558L161.42 141.041L153.803 137.036L146.187 141.041L147.64 132.558L141.477 126.55L149.992 125.313L153.803 117.595Z" fill="#3748A6"/>
</svg>
