<svg width="12" height="12" viewBox="0 0 12 12" fill="none" xmlns="http://www.w3.org/2000/svg">
<path d="M10.6947 5.80001C10.8321 5.65961 10.9277 5.48381 10.971 5.29223C11.0142 5.10064 11.0034 4.9008 10.9397 4.71501C10.88 4.52866 10.7691 4.36285 10.6197 4.23644C10.4703 4.11003 10.2884 4.02811 10.0947 4.00001L7.94972 3.67001C7.93972 3.66711 7.93049 3.66201 7.9227 3.65509C7.91492 3.64817 7.90878 3.6396 7.90472 3.63001L6.96472 1.63001C6.8823 1.44273 6.74718 1.28346 6.57585 1.1716C6.40451 1.05975 6.20434 1.00013 5.99972 1.00001C5.79747 0.999173 5.59929 1.05677 5.42898 1.16587C5.25868 1.27497 5.12351 1.43093 5.03972 1.61501L4.09972 3.61501C4.09459 3.62476 4.0875 3.63335 4.0789 3.64023C4.0703 3.64711 4.06036 3.65214 4.04972 3.65501L1.90972 4.00001C1.71577 4.0289 1.53364 4.11103 1.38357 4.23726C1.23351 4.36349 1.12141 4.52887 1.05972 4.71501C0.998373 4.90145 0.989237 5.10113 1.03331 5.2924C1.07738 5.48366 1.17297 5.65921 1.30972 5.80001L2.88972 7.42501C2.89427 7.43524 2.89662 7.44631 2.89662 7.45751C2.89662 7.46871 2.89427 7.47978 2.88972 7.49001L2.51972 9.76001C2.48533 9.9577 2.50775 10.1611 2.58439 10.3465C2.66102 10.532 2.78872 10.6919 2.95264 10.8076C3.11656 10.9234 3.30996 10.9902 3.51037 11.0003C3.71077 11.0105 3.90994 10.9636 4.08472 10.865L5.94972 9.83001C5.95899 9.82519 5.96928 9.82267 5.97972 9.82267C5.99017 9.82267 6.00046 9.82519 6.00972 9.83001L7.87472 10.865C8.04974 10.9615 8.24836 11.0067 8.44788 10.9956C8.64741 10.9845 8.83978 10.9175 9.00302 10.8023C9.16627 10.687 9.29379 10.5281 9.37101 10.3438C9.44823 10.1595 9.47205 9.95721 9.43972 9.76001L9.09472 7.50001C9.08946 7.49089 9.08669 7.48054 9.08669 7.47001C9.08669 7.45948 9.08946 7.44913 9.09472 7.44001L10.6947 5.80001Z" fill="#F5F5F5"/>
</svg>
