<svg width="22" height="22" viewBox="0 0 22 22" fill="none" xmlns="http://www.w3.org/2000/svg">
<path d="M7.55605 6.72826L1.70772 7.57618L1.60414 7.59726C1.44733 7.63889 1.30438 7.72139 1.18989 7.83633C1.07539 7.95127 0.993455 8.09454 0.952442 8.25151C0.911429 8.40848 0.91281 8.57352 0.956444 8.72978C1.00008 8.88604 1.0844 9.02792 1.2008 9.14093L5.43764 13.265L4.43847 19.0904L4.42655 19.1913C4.41695 19.3534 4.45063 19.5153 4.52413 19.6601C4.59763 19.805 4.70832 19.9278 4.84486 20.0158C4.9814 20.1039 5.13888 20.154 5.30119 20.1612C5.46349 20.1684 5.62479 20.1323 5.76855 20.0566L10.9991 17.3066L16.2176 20.0566L16.3093 20.0988C16.4606 20.1584 16.625 20.1766 16.7857 20.1517C16.9464 20.1268 17.0976 20.0596 17.2238 19.9569C17.3499 19.8543 17.4465 19.7199 17.5036 19.5677C17.5607 19.4154 17.5762 19.2507 17.5486 19.0904L16.5486 13.265L20.7872 9.14001L20.8587 9.0621C20.9609 8.9363 21.0278 8.78568 21.0528 8.62557C21.0778 8.46547 21.0599 8.30161 21.0009 8.15068C20.9419 7.99976 20.844 7.86716 20.7171 7.7664C20.5902 7.66564 20.4388 7.60032 20.2785 7.5771L14.4301 6.72826L11.8158 1.42993C11.7402 1.27642 11.623 1.14715 11.4777 1.05676C11.3324 0.966365 11.1647 0.918457 10.9936 0.918457C10.8224 0.918457 10.6547 0.966365 10.5094 1.05676C10.3641 1.14715 10.247 1.27642 10.1713 1.42993L7.55605 6.72826Z" fill="#DEDEDE"/>
</svg>
