<svg width="56" height="56" viewBox="0 0 56 56" fill="none" xmlns="http://www.w3.org/2000/svg">
<mask id="mask0_213_2625" style="mask-type:alpha" maskUnits="userSpaceOnUse" x="0" y="0" width="56" height="56">
<circle cx="28" cy="28" r="28" fill="white"/>
</mask>
<g mask="url(#mask0_213_2625)">
<path d="M16.3333 23.9167C16.3333 17.4733 21.5567 12.25 28 12.25C34.4433 12.25 39.6667 17.4733 39.6667 23.9167C39.6667 30.36 34.4433 35.5833 28 35.5833C21.5567 35.5833 16.3333 30.36 16.3333 23.9167ZM28 30.9167C31.866 30.9167 35 27.7827 35 23.9167C35 20.0507 31.866 16.9167 28 16.9167C24.134 16.9167 21 20.0507 21 23.9167C21 27.7827 24.134 30.9167 28 30.9167Z" fill="#3F51B5"/>
<path d="M14.8007 43.384C11.3 46.8847 9.33334 51.6326 9.33334 56.5833H14C14 52.8703 15.475 49.3093 18.1005 46.6838C20.726 44.0583 24.287 42.5833 28 42.5833C31.713 42.5833 35.274 44.0583 37.8995 46.6838C40.525 49.3093 42 52.8703 42 56.5833H46.6667C46.6667 51.6326 44.7 46.8847 41.1993 43.384C37.6987 39.8833 32.9507 37.9167 28 37.9167C23.0493 37.9167 18.3014 39.8833 14.8007 43.384Z" fill="#3F51B5"/>
</g>
</svg>
