<svg width="48" height="48" viewBox="0 0 48 48" fill="none" xmlns="http://www.w3.org/2000/svg">
<path d="M41 9.9944C35.1836 9.9944 27.5273 8.0315 24.8008 4.3944C24.7035 4.27622 24.5812 4.18104 24.4427 4.1157C24.3043 4.05036 24.1531 4.01648 24 4.01648C23.8469 4.01648 23.6957 4.05036 23.5573 4.1157C23.4188 4.18104 23.2965 4.27622 23.1992 4.3944C20.4727 8.0315 12.8164 9.9944 7 9.9944C6.73478 9.9944 6.48043 10.0998 6.29289 10.2873C6.10536 10.4748 6 10.7292 6 10.9944V23.9944C6 34.9905 15.5488 41.6194 23.7246 43.9553C23.9045 44.0074 24.0955 44.0074 24.2754 43.9553C32.4512 41.6194 42 34.9905 42 23.9944V10.9944C42 10.7292 41.8946 10.4748 41.7071 10.2873C41.5196 10.0998 41.2652 9.9944 41 9.9944ZM40 23.9944C40 33.7561 31.4453 39.7405 24 41.9534C16.5547 39.7405 8 33.7561 8 23.9944V11.9768C13.7793 11.7815 20.6152 9.9182 24 6.5139C27.3848 9.9182 34.2207 11.7815 40 11.9768V23.9944Z" fill="#3F51B5"/>
<path d="M21.707 23.2873C21.6147 23.1918 21.5044 23.1157 21.3824 23.0632C21.2604 23.0108 21.1291 22.9832 20.9964 22.9821C20.8636 22.9809 20.7319 23.0062 20.609 23.0565C20.4861 23.1068 20.3745 23.1811 20.2806 23.2749C20.1867 23.3688 20.1124 23.4805 20.0621 23.6034C20.0119 23.7263 19.9866 23.858 19.9877 23.9907C19.9889 24.1235 20.0164 24.2547 20.0689 24.3767C20.1213 24.4988 20.1974 24.6091 20.293 24.7013L22.293 26.7013C22.3858 26.7942 22.496 26.8679 22.6173 26.9182C22.7386 26.9685 22.8686 26.9943 23 26.9943C23.1313 26.9943 23.2613 26.9685 23.3826 26.9182C23.5039 26.8679 23.6141 26.7942 23.707 26.7013L27.707 22.7013C27.8025 22.6091 27.8787 22.4988 27.9311 22.3767C27.9835 22.2547 28.0111 22.1235 28.0122 21.9907C28.0134 21.858 27.9881 21.7263 27.9378 21.6034C27.8875 21.4805 27.8132 21.3688 27.7194 21.2749C27.6255 21.1811 27.5138 21.1068 27.3909 21.0565C27.268 21.0062 27.1363 20.9809 27.0036 20.9821C26.8708 20.9832 26.7396 21.0108 26.6176 21.0632C26.4956 21.1157 26.3852 21.1918 26.293 21.2873L23 24.5799L21.707 23.2873Z" fill="#3F51B5"/>
<path d="M14 23.9944C14 25.9722 14.5865 27.9056 15.6853 29.5501C16.7841 31.1946 18.3459 32.4763 20.1732 33.2332C22.0004 33.9901 24.0111 34.1881 25.9509 33.8022C27.8907 33.4164 29.6725 32.464 31.0711 31.0655C32.4696 29.6669 33.422 27.8851 33.8079 25.9453C34.1937 24.0055 33.9957 21.9948 33.2388 20.1676C32.4819 18.3403 31.2002 16.7785 29.5557 15.6797C27.9112 14.5809 25.9778 13.9944 24 13.9944C21.3488 13.9975 18.807 15.052 16.9324 16.9267C15.0577 18.8014 14.0031 21.3432 14 23.9944ZM32 23.9944C32 25.5766 31.5308 27.1234 30.6518 28.4389C29.7727 29.7545 28.5233 30.7799 27.0615 31.3854C25.5997 31.9909 23.9911 32.1493 22.4393 31.8407C20.8874 31.532 19.462 30.7701 18.3431 29.6512C17.2243 28.5324 16.4624 27.107 16.1537 25.5551C15.845 24.0033 16.0035 22.3947 16.609 20.9329C17.2145 19.4711 18.2398 18.2217 19.5554 17.3426C20.871 16.4636 22.4177 15.9944 24 15.9944C26.1211 15.9965 28.1547 16.84 29.6545 18.3398C31.1544 19.8397 31.9979 21.8733 32 23.9944Z" fill="#3F51B5"/>
</svg>
