<svg width="24" height="24" viewBox="0 0 24 24" fill="none" xmlns="http://www.w3.org/2000/svg">
<g clip-path="url(#clip0_5830_19680)">
<path d="M12.0239 3.54541C12.0239 3.54541 19.5231 3.54582 21.3999 4.05029C21.9096 4.18925 22.3742 4.45971 22.7466 4.83447C23.1188 5.20912 23.3863 5.67469 23.522 6.18506C24.0207 8.05803 24.0239 11.9518 24.0239 11.9995C24.0239 11.9995 24.0238 15.9304 23.522 17.8149C23.3863 18.3253 23.1188 18.7909 22.7466 19.1655C22.3742 19.5403 21.9096 19.8108 21.3999 19.9497C19.523 20.4542 12.0239 20.4546 12.0239 20.4546C12.0239 20.4546 4.52481 20.4542 2.64795 19.9497C2.13824 19.8108 1.67364 19.5403 1.30127 19.1655C0.929074 18.7909 0.661588 18.3253 0.525879 17.8149C0.0240607 15.9304 0.0239258 11.9995 0.0239258 11.9995C0.0239446 11.9518 0.0271432 8.05803 0.525879 6.18506C0.661575 5.67469 0.929077 5.20912 1.30127 4.83447C1.67364 4.45971 2.13824 4.18925 2.64795 4.05029C4.52477 3.54582 12.0239 3.54541 12.0239 3.54541ZM9.56982 15.5688L15.8423 11.9995L9.56982 8.43115V15.5688Z" fill="#11142D"/>
</g>
<defs>
<clipPath id="clip0_5830_19680">
<rect width="24" height="24" fill="white"/>
</clipPath>
</defs>
</svg>
